<?xml version="1.0" encoding="iso-8859-1"?>
<!-- Generator: Adobe Illustrator 19.0.0, SVG Export Plug-In . SVG Version: 6.00 Build 0)  -->
<svg xmlns="http://www.w3.org/2000/svg" xmlns:xlink="http://www.w3.org/1999/xlink" version="1.1" id="Layer_1" x="0px" y="0px" viewBox="0 0 504.123 504.123" style="enable-background:new 0 0 504.123 504.123;" xml:space="preserve">
<circle style="fill:#0793D1;" cx="54.044" cy="77.643" r="37.116"/>
<path style="fill:#097ACE;" d="M80.282,51.397c14.509,14.494,14.509,37.983,0,52.492c-14.478,14.478-37.983,14.478-52.492,0"/>
<g>
	<path style="fill:#25BEF4;" d="M51.405,50.003c4.781,4.781-3.34,8.814-10.847,16.305c-7.491,7.491-11.524,15.612-16.305,10.847   c-4.781-4.781-2.615-14.753,4.907-22.229C36.667,47.419,46.608,45.198,51.405,50.003z"/>
	<circle style="fill:#25BEF4;" cx="58.226" cy="48.711" r="2.324"/>
</g>
<path style="fill:#CCC2B2;" d="M209.652,247.477c-4.104,0-8.2-1.567-11.327-4.695L57.84,102.305c-6.246-6.262-6.246-16.384,0-22.63  c6.246-6.262,16.384-6.262,22.63,0l140.493,140.477c6.246,6.246,6.246,16.384,0,22.63  C217.836,245.91,213.748,247.477,209.652,247.477z"/>
<circle style="fill:#0793D1;" cx="320.512" cy="46.679" r="46.679"/>
<path style="fill:#097ACE;" d="M353.501,13.659c18.227,18.227,18.227,47.781,0,66.016s-47.781,18.227-66.017,0"/>
<g>
	<path style="fill:#25BEF4;" d="M317.18,11.926c6.018,6.034-4.214,11.091-13.643,20.512c-9.429,9.429-14.494,19.661-20.512,13.643   c-6.034-6.034-3.261-18.566,6.168-27.987C298.622,8.665,311.146,5.908,317.18,11.926z"/>
	<circle style="fill:#25BEF4;" cx="325.742" cy="10.311" r="2.914"/>
</g>
<path style="fill:#CCC2B2;" d="M156.963,229.912c-4.096,0-8.2-1.568-11.327-4.695c-6.246-6.246-6.246-16.368,0-22.63L286.129,62.11  c6.246-6.262,16.368-6.262,22.63,0c6.246,6.246,6.246,16.368,0,22.63L168.267,225.217  C165.148,228.336,161.052,229.912,156.963,229.912z"/>
<circle style="fill:#FF7F00;" cx="174.45" cy="191.37" r="66.016"/>
<path style="fill:#EA5807;" d="M221.129,144.691c25.781,25.797,25.781,67.584,0,93.373c-25.781,25.765-67.584,25.781-93.357,0"/>
<g>
	<path style="fill:#FFB000;" d="M169.763,142.234c8.523,8.523-5.955,15.659-19.291,29.003   c-13.32,13.336-20.496,27.798-29.019,19.291c-8.507-8.507-4.6-26.23,8.735-39.566C143.518,137.618,161.241,133.711,169.763,142.234   z"/>
	<circle style="fill:#FFB000;" cx="181.894" cy="139.941" r="4.128"/>
</g>
<path style="fill:#CCC2B2;" d="M355.682,393.507c-4.096,0-8.184-1.568-11.327-4.695L203.871,248.336  c-6.246-6.246-6.246-16.384,0-22.63c6.262-6.246,16.384-6.246,22.63,0l140.493,140.477c6.262,6.262,6.262,16.384,0,22.63  C363.867,391.94,359.778,393.507,355.682,393.507z"/>
<circle style="fill:#0793D1;" cx="380.503" cy="397.43" r="106.693"/>
<path style="fill:#097ACE;" d="M455.948,321.985c41.661,41.677,41.661,109.214,0,150.89c-41.661,41.645-109.214,41.661-150.89,0"/>
<g>
	<path style="fill:#25BEF4;" d="M372.933,317.999c13.753,13.769-9.633,25.324-31.185,46.876s-33.122,44.938-46.876,31.169   c-13.769-13.753-7.459-42.401,14.092-63.953C330.516,310.54,359.148,304.23,372.933,317.999z"/>
	<circle style="fill:#25BEF4;" cx="392.507" cy="314.289" r="6.664"/>
</g>
<g>
</g>
<g>
</g>
<g>
</g>
<g>
</g>
<g>
</g>
<g>
</g>
<g>
</g>
<g>
</g>
<g>
</g>
<g>
</g>
<g>
</g>
<g>
</g>
<g>
</g>
<g>
</g>
<g>
</g>
</svg>
