<svg xmlns="http://www.w3.org/2000/svg" viewBox="0 0 1024 205" overflow="visible"><g fill="#3b5998"><path d="M533.69 99.649c-8.561 0-14.732 2.806-20.987 5.667v64.706c5.993.571 9.427.571 15.115.571 20.547 0 23.363-9.408 23.363-22.547V117.14c0-9.7-3.22-17.491-17.492-17.491zm-136.447-3.531c-14.254 0-17.51 7.827-17.51 17.517v5.445h34.999v-5.445c0-9.69-3.252-17.517-17.49-17.517zm-264.324 67.353c0 7.666 3.617 11.648 11.601 11.648 8.565 0 13.635-2.792 19.886-5.66v-15.35h-18.728c-8.863 0-12.76 1.65-12.76 9.362zm533.5-63.822c-14.278 0-19.226 7.792-19.226 17.49v35.405c0 9.728 4.948 17.543 19.225 17.543 14.24 0 19.225-7.815 19.225-17.543V117.14c0-9.7-4.985-17.491-19.225-17.491zM62.945 203.167h-41.97V101.572H0V66.564h20.975v-21.02C20.975 16.983 32.813 0 66.455 0h28.011v35.015H76.96c-13.099 0-13.961 4.892-13.961 14.024l-.052 17.525h31.717l-3.71 35.008H62.945v101.595zm143.447.263h-34.98l-1.516-8.847c-15.973 8.847-30.229 10.28-39.633 10.28-25.653 0-39.312-17.14-39.312-40.839 0-27.964 15.933-37.944 44.44-37.944h29.014v-6.044c0-14.27-1.635-18.464-23.585-18.464h-35.89l3.51-35.008h39.23c48.164 0 58.722 15.214 58.722 53.753v83.113zm118.958-99.29c-21.769-3.73-28.02-4.55-38.494-4.55-18.815 0-24.501 4.151-24.501 20.127v30.222c0 15.978 5.686 20.148 24.5 20.148 10.476 0 16.726-.834 38.495-4.582v34.148c-19.068 4.274-31.49 5.398-41.99 5.398-45.063 0-62.976-23.7-62.976-57.933v-24.524c0-34.263 17.913-58.003 62.976-58.003 10.5 0 22.922 1.13 41.99 5.421v34.128zm131.352 42.978h-76.97v2.821c0 15.978 5.69 20.148 24.5 20.148 16.91 0 27.23-.834 48.96-4.582v34.148c-20.956 4.274-31.876 5.398-52.439 5.398-45.066 0-62.988-23.7-62.988-57.933V119.08c0-29.953 13.298-54.49 59.477-54.49 46.178 0 59.46 24.251 59.46 54.49v28.038zm136.442.647c0 33.09-9.456 57.22-66.746 57.22-20.687 0-32.823-1.818-55.656-5.332V10.513l41.96-7.003v66.16c9.066-3.369 20.804-5.08 31.487-5.08 41.964 0 48.955 18.814 48.955 49.045v34.13zm134.505.722c0 28.544-11.785 56.227-61.091 56.227-49.33 0-61.335-27.683-61.335-56.227v-27.561c0-28.559 12.005-56.246 61.335-56.246 49.306 0 61.09 27.687 61.09 56.246v27.56zm134.41 0c0 28.544-11.798 56.227-61.095 56.227-49.33 0-61.334-27.683-61.334-56.227v-27.561c0-28.559 12.004-56.246 61.334-56.246 49.297 0 61.096 27.687 61.096 56.246v27.56zm137.94 54.68h-45.483l-38.464-64.211v64.211h-41.974V10.512l41.974-7.002v124.023l38.464-60.97H1000L958.008 133.1 1000 203.167zM800.825 99.65c-14.254 0-19.202 7.792-19.202 17.49v35.405c0 9.728 4.948 17.543 19.202 17.543 14.235 0 19.272-7.815 19.272-17.543V117.14c0-9.7-5.037-17.491-19.272-17.491zM1014.066 183.3c5.537 0 9.95 4.515 9.95 10.155 0 5.727-4.413 10.192-9.99 10.192-5.547 0-10.049-4.465-10.049-10.192 0-5.64 4.502-10.155 10.049-10.155h.04zm-.04 1.578c-4.46 0-8.113 3.84-8.113 8.577 0 4.824 3.653 8.613 8.154 8.613 4.505.044 8.103-3.79 8.103-8.57s-3.598-8.62-8.103-8.62h-.04zm-1.894 14.488h-1.806v-11.33c.947-.132 1.85-.265 3.201-.265 1.715 0 2.834.36 3.52.852.666.5 1.025 1.263 1.025 2.342 0 1.498-.984 2.394-2.199 2.761v.088c.988.184 1.663 1.08 1.89 2.747.265 1.762.537 2.438.717 2.805h-1.891c-.268-.368-.54-1.403-.767-2.893-.265-1.44-.992-1.983-2.438-1.983h-1.252v4.876zm0-6.271h1.307c1.48 0 2.739-.543 2.739-1.946 0-.991-.716-1.983-2.74-1.983-.59 0-.998.045-1.306.089v3.84z"/></g></svg>