<svg xmlns="http://www.w3.org/2000/svg" viewBox="0 0 210 114"><linearGradient id="a" gradientUnits="userSpaceOnUse" y1="57" x2="210" y2="57"><stop offset="0" stop-color="#033826"/><stop offset=".5" stop-color="#005d46"/><stop offset="1" stop-color="#033826"/></linearGradient><path fill="url(#a)" d="M104.997 114.04c-2.347 0-4.601-.507-6.709-1.498L9.224 71.34C3.625 68.793 0 63.161 0 57.002a15.798 15.798 0 0 1 9.238-14.345l89.068-41.21a15.578 15.578 0 0 1 6.692-1.487c2.343 0 4.597.501 6.704 1.492l89.073 41.214c5.599 2.542 9.225 8.173 9.225 14.337 0 6.151-3.623 11.779-9.222 14.338l-89.09 41.211a15.61 15.61 0 0 1-6.691 1.488z"/><path fill="#8FABA3" d="M9.025 57.002c0-2.588 1.646-4.956 4.021-6.039l86.519-34.022c.553-.218.553-.57 0-.787l-9.254-3.64c-.553-.217-1.441-.191-1.981.059L11.69 48.031a9.888 9.888 0 0 0-5.773 8.971 9.884 9.884 0 0 0 5.779 8.969l76.618 35.441c.539.251 1.426.276 1.98.06l9.267-3.645c.553-.216.553-.569 0-.789L13.036 63.034c-2.362-1.078-4.011-3.445-4.011-6.032z"/><path fill="#FFF" d="M109.189 6.802a9.803 9.803 0 0 0-4.192-.931 9.814 9.814 0 0 0-4.203.937l-6.44 2.979c-.539.25-.528.63.026.846l102.582 40.335c2.367 1.077 4.017 3.446 4.017 6.033 0 2.583-1.644 4.951-4.016 6.032l-71.589 28.138c-.554.217-.999.399-.996.411.006.009-.441.193-.993.409l-29.012 11.367c-.556.217-.567.596-.027.844l6.457 2.987a9.773 9.773 0 0 0 4.193.938c1.47 0 2.881-.319 4.203-.938l89.12-41.224a9.873 9.873 0 0 0 5.765-8.964 9.881 9.881 0 0 0-5.786-8.973L109.189 6.802z"/><g fill="#FFF"><path d="M146.588 43.542c-6.84 0-12.386 5.286-12.386 11.807 0 6.521 5.547 11.805 12.386 11.805 6.84 0 12.386-5.284 12.386-11.805 0-6.522-5.546-11.807-12.386-11.807zm0 19.225c-3.923 0-7.102-3.32-7.102-7.419 0-4.1 3.179-7.419 7.102-7.419 3.924 0 7.102 3.319 7.102 7.419s-3.179 7.419-7.102 7.419zM107.82 43.934H94.668a2.235 2.235 0 0 0-2.233 2.239c0 1.235.999 2.234 2.233 2.234h3.992v15.809a2.586 2.586 0 0 0 5.169 0V48.407h3.99c1.24 0 2.233-.999 2.233-2.234a2.23 2.23 0 0 0-2.232-2.239zM129.275 43.781a2.587 2.587 0 0 0-2.583 2.585V52.9h-9.598v-6.534a2.585 2.585 0 0 0-2.585-2.585 2.586 2.586 0 0 0-2.581 2.585v17.85a2.585 2.585 0 0 0 2.581 2.583 2.585 2.585 0 0 0 2.585-2.583v-6.929h9.598v6.929a2.584 2.584 0 0 0 5.168 0v-17.85a2.585 2.585 0 0 0-2.585-2.585zM68.62 61.15c-.496 0-.952.156-1.329.418a6.818 6.818 0 0 1-3.875 1.206c-3.925 0-7.105-3.321-7.105-7.419 0-4.1 3.18-7.422 7.105-7.422 1.405 0 2.712.43 3.813 1.166.393.293.871.466 1.391.466a2.325 2.325 0 1 0 1.06-4.394 12.805 12.805 0 0 0-6.264-1.622c-6.839 0-12.387 5.283-12.387 11.805s5.548 11.807 12.387 11.807c2.247 0 4.353-.577 6.173-1.577a2.32 2.32 0 0 0 1.358-2.112 2.326 2.326 0 0 0-2.327-2.322zM94.383 63.443l-8.38-18.176a2.442 2.442 0 0 0-2.362-1.394 2.437 2.437 0 0 0-2.361 1.394L72.9 63.443a2.436 2.436 0 0 0 1.167 3.24 2.443 2.443 0 0 0 3.24-1.174l1.091-2.368h10.484l1.093 2.368a2.443 2.443 0 0 0 3.24 1.174 2.435 2.435 0 0 0 1.168-3.24zM80.31 59.001l3.331-7.226 3.332 7.226H80.31z"/></g><g fill="#FFF"><path d="M76.26 77.407v-6.205c0-.377.292-.668.668-.668h4.385c.323 0 .591.269.591.593a.59.59 0 0 1-.591.591h-3.727v1.959h3.243a.6.6 0 0 1 .591.604.59.59 0 0 1-.591.584h-3.243v2.021h3.782c.322 0 .592.27.592.593a.59.59 0 0 1-.592.592h-4.439a.655.655 0 0 1-.669-.664zM83.189 71.16c0-.368.289-.669.668-.669h.138c.29 0 .484.152.614.356l2.284 3.577 2.294-3.589a.669.669 0 0 1 .604-.344h.141c.377 0 .668.301.668.669v6.31a.656.656 0 0 1-.668.658.669.669 0 0 1-.66-.658v-4.524l-1.84 2.769c-.139.215-.314.344-.56.344-.237 0-.41-.129-.551-.344l-1.831-2.747v4.513c0 .368-.29.647-.657.647a.633.633 0 0 1-.645-.647V71.16zM92.353 71.202c0-.377.291-.668.667-.668h2.304c1.768 0 2.866 1.002 2.866 2.519v.023c0 1.691-1.359 2.574-3.017 2.574h-1.497v1.819a.653.653 0 0 1-.657.658.655.655 0 0 1-.667-.658v-6.267zm2.864 3.251c1 0 1.627-.559 1.627-1.345v-.021c0-.882-.635-1.348-1.627-1.348h-1.54v2.713h1.54zM99.257 71.202c0-.377.29-.668.668-.668h2.693c.948 0 1.692.279 2.176.755.399.408.625.969.625 1.627v.021c0 1.205-.701 1.94-1.713 2.251l1.445 1.819c.128.163.216.304.216.507 0 .367-.315.614-.637.614-.301 0-.497-.139-.647-.346l-1.832-2.336h-1.668v2.024a.653.653 0 0 1-.658.658.655.655 0 0 1-.668-.658v-6.268zm3.265 3.07c.948 0 1.551-.496 1.551-1.261v-.022c0-.807-.583-1.25-1.562-1.25h-1.929v2.532h1.94zM106.84 77.407v-6.205c0-.377.29-.668.666-.668h4.385c.321 0 .59.269.59.593a.59.59 0 0 1-.59.591h-3.727v1.959h3.242c.323 0 .593.27.593.604 0 .322-.27.584-.593.584h-3.242v2.021h3.78a.6.6 0 0 1 .594.593.59.59 0 0 1-.594.592h-4.438a.653.653 0 0 1-.666-.664zM113.591 77.234a.622.622 0 0 1-.258-.508c0-.344.28-.613.624-.613.183 0 .303.053.388.117.625.496 1.294.777 2.113.777s1.333-.387 1.333-.948v-.021c0-.539-.3-.829-1.701-1.154-1.605-.385-2.512-.859-2.512-2.25v-.021c0-1.293 1.08-2.187 2.577-2.187.95 0 1.713.248 2.391.702a.597.597 0 0 1 .291.527.616.616 0 0 1-.624.614.636.636 0 0 1-.345-.098c-.58-.376-1.141-.57-1.734-.57-.777 0-1.227.397-1.227.894v.021c0 .581.343.84 1.799 1.184 1.593.39 2.413.958 2.413 2.209v.021c0 1.412-1.113 2.252-2.695 2.252a4.706 4.706 0 0 1-2.833-.948zM119.879 77.212l2.8-6.246c.151-.335.42-.54.796-.54h.064c.378 0 .636.205.788.54l2.802 6.246a.622.622 0 0 1-.551.915c-.314 0-.527-.183-.646-.463l-.615-1.41h-3.661l-.636 1.453a.636.636 0 0 1-.615.421.606.606 0 0 1-.613-.614.708.708 0 0 1 .087-.302zm4.933-2.134l-1.325-3.046-1.325 3.046h2.65zM128.215 77.234a.622.622 0 0 1-.258-.508c0-.344.28-.613.625-.613.181 0 .303.053.388.117.624.496 1.291.777 2.11.777s1.337-.387 1.337-.948v-.021c0-.539-.304-.829-1.703-1.154-1.605-.385-2.51-.859-2.51-2.25v-.021c0-1.293 1.078-2.187 2.573-2.187.95 0 1.714.248 2.392.702a.595.595 0 0 1 .291.527.617.617 0 0 1-.624.614.634.634 0 0 1-.345-.098c-.582-.376-1.143-.57-1.735-.57-.775 0-1.227.397-1.227.894v.021c0 .581.343.84 1.797 1.184 1.595.39 2.413.958 2.413 2.209v.021c0 1.412-1.109 2.252-2.695 2.252a4.703 4.703 0 0 1-2.829-.948z"/></g></svg>