<?xml version="1.0" encoding="iso-8859-1"?>
<!-- Generator: Adobe Illustrator 19.0.0, SVG Export Plug-In . SVG Version: 6.00 Build 0)  -->
<svg version="1.1" id="Layer_1" xmlns="http://www.w3.org/2000/svg" xmlns:xlink="http://www.w3.org/1999/xlink" x="0px" y="0px"
	 viewBox="0 0 512 512" style="enable-background:new 0 0 512 512;" xml:space="preserve">
<path style="fill:#CCD1D9;" d="M255.985,0c-47.117,0-85.328,114.609-85.328,256s38.211,256,85.328,256
	c47.141,0,85.344-114.609,85.344-256S303.126,0,255.985,0z M296.095,430.281c-6.953,20.859-15.125,37.594-23.641,48.406
	c-6,7.609-12,11.984-16.469,11.984c-4.453,0-10.438-4.375-16.445-11.984c-8.516-10.812-16.695-27.547-23.648-48.406
	c-7.43-22.297-13.281-48.406-17.398-77.609c-4.312-30.578-6.5-63.109-6.5-96.672c0-33.57,2.188-66.094,6.5-96.672
	c4.117-29.203,9.969-55.312,17.398-77.602c6.953-20.867,15.133-37.602,23.648-48.406c6.008-7.617,11.992-11.984,16.445-11.984
	c4.469,0,10.469,4.367,16.469,11.984c8.516,10.805,16.688,27.539,23.641,48.406c7.422,22.289,13.297,48.398,17.406,77.602
	c4.297,30.578,6.484,63.102,6.484,96.672c0,33.562-2.188,66.094-6.484,96.672C309.392,381.875,303.517,407.984,296.095,430.281z"/>
<path style="fill:#E6E9ED;" d="M477.704,128c-7.766-13.445-25.797-19.82-50.875-19.82c-51.078,0-131.375,26.508-213.5,73.922
	C90.884,252.797,10.728,343.188,34.298,384c7.758,13.438,25.781,19.828,50.859,19.828c51.086,0,131.375-26.516,213.516-73.922
	C421.11,259.219,501.267,168.82,477.704,128z M457.063,158.914c-5.078,12.773-15.5,28.219-30.094,44.68
	c-15.578,17.578-35.266,35.703-58.516,53.875c-24.312,19.016-51.391,37.172-80.469,53.969
	c-38.453,22.188-78.094,40.531-114.617,53.031c-34.514,11.781-65.014,18.031-88.21,18.031c-19.984,0-29.828-4.734-32.391-9.172
	c-2.227-3.859-1.445-11.234,2.156-20.234c5.094-12.781,15.5-28.219,30.102-44.688c15.578-17.578,35.266-35.703,58.5-53.875
	c24.328-19.016,51.398-37.172,80.477-53.953c38.453-22.211,78.094-40.555,114.609-53.031c34.531-11.797,65.031-18.031,88.219-18.039
	l0,0c19.984,0,29.844,4.734,32.406,9.164C461.454,142.531,460.673,149.906,457.063,158.914z"/>
<path style="fill:#5D9CEC;" d="M298.673,256c0,23.562-19.109,42.656-42.688,42.656c-23.555,0-42.656-19.094-42.656-42.656
	s19.102-42.664,42.656-42.664C279.563,213.336,298.673,232.438,298.673,256z"/>
<path style="fill:#CCD1D9;" d="M298.673,182.102c-82.148-47.422-162.43-73.93-213.516-73.922c-25.07,0-43.109,6.383-50.859,19.82
	c-23.57,40.82,56.586,131.219,179.031,201.906c82.125,47.406,162.422,73.922,213.5,73.922c25.062,0,43.109-6.391,50.875-19.828
	C501.267,343.188,421.11,252.797,298.673,182.102z M459.235,373.328c-2.562,4.438-12.422,9.172-32.406,9.172
	c-23.188,0-53.688-6.25-88.219-18.031c-36.5-12.5-76.156-30.828-114.609-53.031c-29.078-16.797-56.148-34.953-80.477-53.969
	c-23.234-18.172-42.922-36.297-58.5-53.875c-14.602-16.461-25.008-31.906-30.102-44.68c-3.602-9.008-4.383-16.383-2.156-20.242
	c2.562-4.43,12.406-9.156,32.398-9.164l0,0c23.195,0,53.695,6.234,88.211,18.031c36.516,12.484,76.156,30.828,114.609,53.039
	c29.078,16.781,56.156,34.938,80.469,53.953c23.25,18.172,42.938,36.297,58.516,53.875c14.594,16.469,25.016,31.906,30.094,44.688
	C460.673,362.094,461.454,369.469,459.235,373.328z"/>
<g>
</g>
<g>
</g>
<g>
</g>
<g>
</g>
<g>
</g>
<g>
</g>
<g>
</g>
<g>
</g>
<g>
</g>
<g>
</g>
<g>
</g>
<g>
</g>
<g>
</g>
<g>
</g>
<g>
</g>
</svg>
