<?xml version="1.0" encoding="iso-8859-1"?>
<!-- Generator: Adobe Illustrator 19.0.0, SVG Export Plug-In . SVG Version: 6.00 Build 0)  -->
<svg version="1.1" id="Capa_1" xmlns="http://www.w3.org/2000/svg" xmlns:xlink="http://www.w3.org/1999/xlink" x="0px" y="0px"
	 viewBox="0 0 204.556 204.556" style="enable-background:new 0 0 204.556 204.556;" xml:space="preserve">
<path d="M73.705,159.759c-1.504,0-2.86-1.038-3.207-2.565c-3.693-16.341-5.646-35.33-5.646-54.914
	c0-5.705,0.167-11.431,0.497-17.019c0.106-1.814,1.688-3.209,3.478-3.092c1.814,0.106,3.2,1.664,3.092,3.478
	c-0.321,5.458-0.485,11.054-0.485,16.631c0,19.103,1.896,37.591,5.484,53.463c0.401,1.773-0.712,3.535-2.485,3.936
	C74.191,159.732,73.947,159.759,73.705,159.759z"/>
<path d="M102.278,204.556c-11.484,0-21.683-12.694-28.718-35.741c-0.531-1.739,0.449-3.577,2.186-4.108
	c1.741-0.531,3.579,0.449,4.108,2.186c5.939,19.461,14.322,31.08,22.422,31.08c7.494,0,15.157-9.759,21.024-26.774
	c6.33-18.36,9.817-42.837,9.817-68.922s-3.487-50.562-9.817-68.922c-5.868-17.015-13.53-26.774-21.024-26.774
	c-12.225,0-24.028,25.219-28.703,61.331c-0.232,1.802-1.886,3.079-3.686,2.842c-1.802-0.234-3.074-1.884-2.842-3.686
	C72.401,25.699,85.901,0,102.274,0c23.426,0,37.424,52.002,37.424,102.277S125.703,204.556,102.278,204.556z"/>
<path d="M146.127,114.343c-0.906,0-1.811-0.372-2.459-1.104c-1.208-1.359-1.085-3.439,0.273-4.646
	c28.455-25.3,43.815-51.162,36.523-61.496c-5.383-7.624-23.223-6.629-46.565,2.598c-1.686,0.666-3.601-0.16-4.27-1.852
	c-0.667-1.69,0.16-3.601,1.852-4.27c27.107-10.711,46.921-10.812,54.361-0.271c9.706,13.752-5.024,41.312-37.526,70.209
	C147.687,114.069,146.905,114.343,146.127,114.343z"/>
<path d="M102.841,145.843c-1.126,0-2.222-0.579-2.836-1.618c-0.925-1.565-0.404-3.584,1.159-4.507
	c6.333-3.741,12.692-7.859,18.9-12.242c4.275-3.019,8.48-6.161,12.496-9.342c1.425-1.128,3.494-0.889,4.623,0.536
	c1.128,1.425,0.887,3.495-0.536,4.623c-4.111,3.256-8.414,6.472-12.788,9.559c-6.352,4.483-12.861,8.701-19.347,12.532
	C103.986,145.695,103.409,145.843,102.841,145.843z"/>
<path d="M38.327,169.088c-9.126,0-15.906-2.584-19.61-7.832c-13.508-19.139,20.907-60.563,61.981-89.552
	c11.948-8.433,24.083-15.696,36.064-21.586c1.633-0.799,3.603-0.13,4.405,1.502c0.802,1.632,0.13,3.603-1.502,4.405
	c-11.672,5.738-23.506,12.822-35.173,21.057c-21.311,15.041-39.298,32.003-50.647,47.763c-10.518,14.606-14.073,26.493-9.752,32.616
	c6.721,9.52,32.77,5.323,63.351-10.202c1.621-0.823,3.601-0.176,4.424,1.444c0.823,1.621,0.176,3.601-1.444,4.424
	C69.631,163.683,51.527,169.088,38.327,169.088z"/>
<path d="M48.316,104.808c-0.845,0-1.688-0.323-2.33-0.968C20.322,78.102,10.128,55.472,18.716,43.302
	c6.506-9.219,22.38-10.356,44.691-3.2c1.731,0.555,2.683,2.408,2.128,4.139c-0.555,1.732-2.41,2.686-4.139,2.128
	c-18.784-6.025-32.73-5.753-37.303,0.729c-6.294,8.919,4.376,29.855,26.554,52.096c1.283,1.287,1.28,3.371-0.007,4.654
	C49.999,104.487,49.158,104.808,48.316,104.808z"/>
<path d="M166.541,169.066c-22.048,0.002-56.383-15.42-85.842-36.212c-9.136-6.446-17.743-13.295-25.585-20.352
	c-1.352-1.215-1.459-3.297-0.244-4.647s3.297-1.457,4.647-0.244c7.649,6.885,16.053,13.57,24.977,19.867
	c21.311,15.041,43.319,26.307,61.971,31.722c17.285,5.018,29.677,4.384,33.999-1.739c5.545-7.856-2.275-25.564-19.917-45.112
	c-1.219-1.35-1.111-3.43,0.237-4.647s3.432-1.111,4.647,0.237c20.698,22.932,28.138,42.366,20.408,53.316
	C182.018,166.668,175.233,169.066,166.541,169.066z"/>
<path d="M154.363,104.474c-0.831,0-1.662-0.312-2.302-0.939c-9.405-9.206-20.171-18.106-32-26.453
	c-15.52-10.953-31.636-20.033-46.609-26.252c-1.678-0.698-2.475-2.623-1.777-4.302c0.698-1.678,2.628-2.473,4.302-1.777
	c15.413,6.403,31.968,15.724,47.879,26.953c12.114,8.549,23.151,17.676,32.807,27.127c1.299,1.271,1.321,3.355,0.05,4.654
	C156.072,104.143,155.219,104.474,154.363,104.474z"/>
<circle style="fill:#85D839;" cx="102.278" cy="102.279" r="20.48"/>
<path d="M102.278,126.172c-13.175,0-23.893-10.718-23.893-23.893s10.718-23.893,23.893-23.893s23.893,10.718,23.893,23.893
	S115.453,126.172,102.278,126.172z M102.278,85.212c-9.411,0-17.067,7.656-17.067,17.067s7.656,17.067,17.067,17.067
	s17.067-7.656,17.067-17.067S111.688,85.212,102.278,85.212z"/>
<g>
</g>
<g>
</g>
<g>
</g>
<g>
</g>
<g>
</g>
<g>
</g>
<g>
</g>
<g>
</g>
<g>
</g>
<g>
</g>
<g>
</g>
<g>
</g>
<g>
</g>
<g>
</g>
<g>
</g>
</svg>
