<?xml version="1.0" encoding="iso-8859-1"?>
<!-- Generator: Adobe Illustrator 19.0.0, SVG Export Plug-In . SVG Version: 6.00 Build 0)  -->
<svg version="1.1" id="Capa_1" xmlns="http://www.w3.org/2000/svg" xmlns:xlink="http://www.w3.org/1999/xlink" x="0px" y="0px"
	 viewBox="0 0 512 512" style="enable-background:new 0 0 512 512;" xml:space="preserve">
<g>
	<path style="fill:#CDD6E0;" d="M321.067,129.067c-2.133-7.467-3.2-14.933-5.333-21.333c-19.2,8.533-39.467,18.133-59.733,29.867
		c7.467,4.267,13.867,8.533,21.333,12.8C292.267,141.867,306.133,135.467,321.067,129.067z"/>
	<path style="fill:#CDD6E0;" d="M210.133,193.067C225.067,182.4,241.067,171.733,256,163.2c-7.467-4.267-14.138-9.059-21.333-12.8
		c-12.8,7.467-24.533,16-37.333,24.533c-5.333,4.267-10.667,7.467-16,11.733c-1.067,9.6-2.133,19.2-2.133,29.867
		C188.8,209.067,199.467,200.533,210.133,193.067z"/>
	<path style="fill:#CDD6E0;" d="M362.667,114.133c18.133-5.333,34.133-7.467,48-7.467c17.067,0,29.867,4.267,35.2,12.8
		c10.667,14.933,3.2,44.8-21.333,80c-9.6,13.867-20.267,27.733-33.067,41.6c5.333,5.333,10.667,10.667,14.933,16
		c13.867-14.933,25.6-29.867,36.267-44.8c30.933-44.8,38.4-82.133,21.333-105.6s-54.4-27.733-106.667-12.8
		c-6.4,2.133-13.867,4.267-20.267,6.4c2.133,6.4,4.267,13.867,5.333,21.333C348.8,118.4,355.2,116.267,362.667,114.133z"/>
	<path style="fill:#CDD6E0;" d="M376.533,256c-6.4,6.4-13.867,12.8-20.267,20.267c0,10.667-1.067,20.267-2.133,30.933
		c13.867-11.733,26.321-23.217,38.054-34.95C386.854,265.85,381.867,261.333,376.533,256z"/>
</g>
<g>
	<path style="fill:#F2F2F2;" d="M315.733,404.267c-1.067,4.267-2.133,7.467-3.2,10.667C297.6,461.867,276.267,489.6,256,489.6
		c-21.333,0-43.733-32-58.667-85.333c-7.467,3.2-13.867,5.333-20.267,8.533c16,57.6,42.667,99.2,78.933,99.2
		c34.133,0,59.733-36.267,76.8-88.533c1.067-3.2,2.133-6.4,3.2-10.667C329.734,408.198,322.133,407.467,315.733,404.267z"/>
	<path style="fill:#F2F2F2;" d="M355.511,236.012c-7.467-6.4-14.933-12.8-22.4-19.2c-0.311,4.674,0,8.533,0,13.867l0,0
		c0,8.533,0,16,0,24.533c0,13.867,0.743,27.584-0.324,40.384l0.001-0.001c-1.054,10.615-1.059,20.177-2.122,29.738
		c0.002-0.002,0.004-0.003,0.006-0.005c-1.081,15.931-4.287,32.071-7.473,46.938c-1.067,3.2-2.133,8.363-2.133,11.563
		c7.467,3.2,13.063,5.437,20.267,7.637c1.067-3.2,1.067-7.467,2.133-10.667c5.333-23.467,9.6-49.067,10.667-74.667
		c1.067-9.6,1.067-20.267,2.133-30.933C356.267,271.603,355.511,238.261,355.511,236.012z"/>
</g>
<path style="fill:#CDD6E0;" d="M301.867,320c-16,10.667-30.933,20.267-45.867,29.867c-7.467,4.267-14.933,7.467-21.333,11.733
	c-14.933,8.533-29.867,14.933-43.733,21.333c-6.4,3.2-13.867,5.333-20.267,8.533C118.4,409.6,78.933,410.667,66.133,393.6
	C48,369.067,82.133,304,156.8,236.8c0-10.667,1.067-20.267,2.133-30.933C75.733,275.2,16,360.533,49.067,406.4
	c10.667,14.933,28.8,21.333,53.333,21.333c21.333,0,45.867-5.333,73.6-14.933l0,0c6.4-2.133,13.867-5.333,20.267-8.533
	c19.2-7.467,38.4-18.133,59.733-29.867c-0.005-0.003-0.011-0.006-0.016-0.009c6.666-3.779,14.511-7.984,21.251-11.789
	c0.032,0.022,0.066,0.043,0.099,0.065c0.534-0.34,1.081-0.693,1.62-1.037c0.017-0.01,0.035-0.02,0.052-0.03
	c-0.001-0.001-0.002-0.001-0.003-0.002c11.276-7.21,23.465-15.332,35.664-23.465c5.333-4.267,10.667-7.467,16-11.733
	c1.067-9.6,2.133-19.2,2.133-29.867C323.2,305.067,312.533,312.533,301.867,320z"/>
<g>
	<path style="fill:#ACB3BA;" d="M165.332,97.073c0.001-0.002,0.001-0.004,0.002-0.006c-3.2-1.067-7.467-2.133-10.667-3.2
		C102.4,78.933,65.067,83.2,48,106.667s-9.6,60.8,21.333,105.6c19.2,27.733,45.867,56.533,76.8,84.266
		c4.267,3.2,7.467,6.4,11.733,9.6c-1.067-9.6-1.067-20.267-1.067-30.933c-4.267-3.2-7.467-6.4-11.733-9.6v0.001V265.6
		c-22.4-22.4-42.667-44.8-57.6-66.133c-24.533-35.2-32-66.133-21.333-80c10.667-14.933,41.6-17.067,83.2-4.267
		c3.199,1.066,7.463,2.132,10.663,3.199c0,0.002-0.001,0.004-0.001,0.007c2.133,1.067,7.111,2.303,10.311,3.369
		c2.133-7.467,3.173-14.999,5.307-21.399C172.413,99.31,168.531,98.139,165.332,97.073z"/>
	<path style="fill:#ACB3BA;" d="M211.2,318.933c-7.467-4.267-13.867-9.6-20.267-14.933c-4.267-3.2-7.467-6.4-11.733-9.6
		c0.222,9.04-1.613,18.407,2.133,29.867c4.267,4.267,8.533,6.4,12.8,9.6l0,0c1.067,1.067,2.133,2.133,4.267,3.2
		c12.8,8.533,24.533,17.067,37.333,24.533c7.467-4.267,14.74-8.282,22.207-12.549C243.007,340.518,227.2,329.6,211.2,318.933z"/>
	<path style="fill:#ACB3BA;" d="M406.4,256c-4.267-5.333-9.6-10.667-14.933-16l0,0c-8.533-8.533-17.067-16-25.6-24.533
		c-4.224-3.168-7.406-6.336-11.608-9.504c-0.392-0.444-1.28-0.877-1.329-1.273c-7.467-6.4-21.326-17.918-22.269-18.056
		c-4.148-4.035-8.646-5.39-12.794-8.501l0,0c-1.067-1.067-2.133-2.133-4.267-3.2c-12.626-8.417-36.453-24.427-36.267-24.533
		c-7.467-4.267-13.867-8.533-21.333-12.8c-17.067-9.6-33.067-18.133-49.067-25.6c-3.2-1.067-7.322-3.633-10.522-4.7
		c-2.133,6.4-4.281,13.84-5.348,21.307c3.2,1.067,7.337,3.66,10.537,4.727l0,0l0,0c10.667,5.333,21.333,10.667,33.067,17.067
		c7.275,4.157,20.458,12.691,20.267,12.8c14.933,9.6,30.933,19.2,45.867,29.867c7.467,4.267,13.867,9.6,20.267,14.933
		c4.267,3.2,7.467,6.4,11.733,9.6c7.467,6.4,16,12.8,22.4,19.2c4.267,3.2,7.467,6.4,11.733,9.6c3.2,3.2,6.4,6.4,9.6,9.6l0,0
		c5.333,5.333,10.667,10.667,14.933,16c49.067,53.333,69.333,101.333,54.4,121.6c-11.733,16-48.547,16.814-95.48,0.814
		c-0.001,0.003-0.001,0.005-0.002,0.007c-2.255-0.985-6.097-1.97-9.051-2.954c-6.19-3.095-14.984-5.414-21.345-8.458
		c0.004-0.025,0.008-0.05,0.012-0.075c-3.2-1.067-6.4-3.2-9.6-4.267l0,0c-10.667-5.333-19.714-10.637-31.447-17.037
		c-7.467,4.267-16.553,8.504-22.953,12.77c17.067,9.6,33.067,18.133,49.067,25.6l0,0c2.821,0.94,5.642,2.708,8.463,3.844
		c0,0.001,0,0.001,0,0.002c7.467,3.2,16.071,5.754,22.471,8.954c0.014-0.051,0.029-0.099,0.043-0.149
		c2.425,0.845,5.432,1.974,7.627,2.706l0,0c0.643,0.214,1.287,0.429,1.93,0.643c0.004-0.014,0.008-0.027,0.012-0.04
		c22.862,7.123,46.384,11.773,65.055,11.773c24.533,0,42.667-7.467,53.333-21.333C488.533,371.2,458.667,312.533,406.4,256z"/>
</g>
<path style="fill:#F2F2F2;" d="M353.067,190.933L353.067,190.933c-2.133-24.533-6.4-48-11.733-70.4l0,0
	c-2.133-7.467-3.2-14.933-5.333-21.333c-17.067-57.6-43.733-99.2-80-99.2c-33.904,0-59.385,35.79-76.451,88.536
	c-0.002-0.001-0.004-0.002-0.006-0.003c-1.067,3.2-2.477,6.4-3.543,10.667c-2.133,6.4-4.267,13.867-5.333,21.333
	c-1.067,3.2-1.8,9.504-2.133,10.667l0,0l0,0c-5.333,23.467-9.6,49.067-10.667,74.667c-1.067,9.6-1.067,20.267-2.133,30.933
	c-0.779,5.634,1.067,34.626,1.067,38.4l0,0c0,9.512,0.021,21.526,1.067,30.933c0.001,0,0.001,0.001,0.002,0.001
	c-0.001,0-0.001-0.001-0.002-0.001c0,5.333,1.067,9.6,1.067,14.933c2.133,24.533,6.4,48,11.733,70.4
	c6.4-2.133,13.867-5.333,20.267-8.533c-3.2-13.867-5.333-27.733-7.467-42.667c-1.067-5.333-1.067-9.6-2.133-14.933
	c-1.034-9.308-2.076-20.541-2.14-30.939c0.002,0.002,0.004,0.004,0.006,0.005c0-0.127-0.009-0.264-0.011-0.393
	c-0.001-0.197-0.007-0.399-0.007-0.596c-0.003-0.003-0.006-0.005-0.01-0.008c-0.138-4.087-1.039-9.004-1.039-13.933
	c0-7.662,0-14.59,0-22.403c0-13.801,0.002-27.771,1.053-40.522c0.004-0.004,0.009-0.008,0.013-0.011
	c1.067-10.667,1.067-20.267,2.133-29.867c-0.01,0.008-0.02,0.015-0.03,0.023c1.129-16.698,4.358-32.308,7.497-46.956
	c1.067-3.2,1.067-7.467,2.133-10.667c2.133-7.467,3.2-14.933,5.333-21.333c0.958-2.876,2.177-6.564,3.189-9.605
	c0.004,0.002,0.008,0.004,0.011,0.005C214.4,51.2,235.733,22.4,256,22.4c21.333,0,43.733,32,59.733,85.333
	c2.133,6.4,4.267,13.867,5.333,21.333c3.2,13.867,5.333,27.733,7.467,42.667l0,0c1.067,5.333,1.067,9.6,2.133,14.933
	c8.533,6.4,16,12.8,23.467,19.2C354.133,200.533,353.067,196.267,353.067,190.933z"/>
<circle style="fill:#84DBFF;" cx="408.53" cy="93.87" r="27.733"/>
<circle style="fill:#FFFFFF;" cx="408.53" cy="93.87" r="13.867"/>
<circle style="fill:#FF7058;" cx="73.6" cy="197.33" r="27.733"/>
<circle style="fill:#FFFFFF;" cx="73.6" cy="197.33" r="13.867"/>
<circle style="fill:#FFD15C;" cx="306.13" cy="461.87" r="27.733"/>
<circle style="fill:#FFFFFF;" cx="306.13" cy="461.87" r="13.867"/>
<circle style="fill:#84DBFF;" cx="256" cy="256" r="54.4"/>
<g>
</g>
<g>
</g>
<g>
</g>
<g>
</g>
<g>
</g>
<g>
</g>
<g>
</g>
<g>
</g>
<g>
</g>
<g>
</g>
<g>
</g>
<g>
</g>
<g>
</g>
<g>
</g>
<g>
</g>
</svg>
