<?xml version="1.0" encoding="iso-8859-1"?>
<!-- Generator: Adobe Illustrator 19.0.0, SVG Export Plug-In . SVG Version: 6.00 Build 0)  -->
<svg version="1.1" id="Capa_1" xmlns="http://www.w3.org/2000/svg" xmlns:xlink="http://www.w3.org/1999/xlink" x="0px" y="0px"
	 viewBox="0 0 215.04 215.04" style="enable-background:new 0 0 215.04 215.04;" xml:space="preserve">
<path style="fill:#DDDDDD;" d="M131.413,65.345V17.067H83.627v48.278c-29.754,9.984-51.2,38.072-51.2,71.188
	c0,41.474,33.62,75.093,75.093,75.093s75.093-33.62,75.093-75.093C182.613,103.417,161.167,75.329,131.413,65.345z"/>
<path d="M107.52,215.04c-43.288,0-78.507-35.219-78.507-78.507c0-32.949,20.471-62.218,51.2-73.603V17.067
	c0-1.884,1.529-3.413,3.413-3.413h47.787c1.884,0,3.413,1.529,3.413,3.413V62.93c30.729,11.385,51.2,40.655,51.2,73.603
	C186.027,179.821,150.808,215.04,107.52,215.04z M87.04,20.48v44.865c0,1.466-0.937,2.77-2.328,3.236
	c-29.232,9.81-48.872,37.117-48.872,67.953c0,39.525,32.155,71.68,71.68,71.68s71.68-32.155,71.68-71.68
	c0-30.836-19.64-58.144-48.872-67.951c-1.391-0.466-2.328-1.77-2.328-3.236V20.48H87.04z"/>
<path style="fill:#2BBBE9;" d="M138.865,83.76c-8.028,3.081-19.106,4.987-31.345,4.987S84.204,86.84,76.175,83.76
	C58.179,94.473,46.08,114.067,46.08,136.533c0,33.932,27.508,61.44,61.44,61.44s61.44-27.508,61.44-61.44
	C168.96,114.067,156.863,94.473,138.865,83.76z"/>
<path d="M107.52,201.387c-35.76,0-64.853-29.094-64.853-64.853c0-22.699,12.172-44.044,31.763-55.707
	c0.901-0.534,1.995-0.625,2.97-0.253c7.996,3.07,18.693,4.76,30.121,4.76s22.125-1.69,30.121-4.76
	c0.973-0.377,2.07-0.282,2.97,0.253c19.593,11.662,31.763,33.009,31.763,55.707C172.373,172.293,143.28,201.387,107.52,201.387z
	 M76.553,87.533c-16.975,10.723-27.059,28.921-27.059,49c0,31.997,26.03,58.027,58.027,58.027s58.027-26.03,58.027-58.027
	c0-20.079-10.083-38.279-27.058-49c-8.544,2.99-19.458,4.627-30.969,4.627C96.007,92.16,85.094,90.523,76.553,87.533z"/>
<path d="M107.52,191.147c-12.553,0-22.019-20.543-22.019-47.787s9.467-47.787,22.019-47.787c12.554,0,22.021,20.543,22.021,47.787
	S120.074,191.147,107.52,191.147z M107.52,102.4c-7.171,0-15.193,17.517-15.193,40.96s8.021,40.96,15.193,40.96
	c7.173,0,15.194-17.517,15.194-40.96S114.693,102.4,107.52,102.4z"/>
<path d="M137.182,175.915c-11.752,0.002-28.327-6.729-42.25-15.749c-17.427-11.286-29.815-25.156-31.561-35.333
	c-0.609-3.557,0.056-6.721,1.929-9.151c8.223-10.68,34.374-2.364,54.81,10.871c17.427,11.286,29.817,25.156,31.563,35.333
	c0.609,3.557-0.056,6.721-1.929,9.151C147.123,174.442,142.681,175.915,137.182,175.915z M77.87,117.627
	c-3.567,0-6.059,0.785-7.161,2.219c-0.698,0.906-0.896,2.161-0.609,3.833c1.142,6.649,10.561,19.11,28.544,30.758
	c22.851,14.8,42.011,17.212,45.691,12.438c0.698-0.906,0.896-2.161,0.609-3.833c-1.142-6.649-10.561-19.11-28.546-30.758l0,0
	C100.398,121.921,86.205,117.627,77.87,117.627z"/>
<path d="M77.858,175.915c-5.499,0-9.94-1.473-12.559-4.876c-1.872-2.43-2.538-5.594-1.929-9.151
	c1.746-10.177,14.135-24.047,31.561-35.333c20.439-13.239,46.595-21.545,54.811-10.871c1.872,2.43,2.538,5.594,1.929,9.151
	c-1.746,10.177-14.136,24.047-31.563,35.333C106.187,169.185,89.61,175.915,77.858,175.915z M137.17,117.627
	c-8.334,0-22.526,4.292-38.528,14.657c-17.983,11.648-27.402,24.11-28.544,30.758c-0.287,1.673-0.089,2.927,0.609,3.833
	c3.678,4.78,22.845,2.362,45.689-12.438c17.983-11.648,27.404-24.11,28.546-30.758c0.287-1.673,0.089-2.927-0.609-3.833
	C143.23,118.414,140.737,117.627,137.17,117.627z"/>
<path style="fill:#DDDDDD;" d="M134.827,17.067H80.213c-3.77,0-6.827-3.057-6.827-6.827l0,0c0-3.77,3.057-6.827,6.827-6.827h54.613
	c3.77,0,6.827,3.057,6.827,6.827l0,0C141.653,14.01,138.598,17.067,134.827,17.067z"/>
<path d="M134.827,20.48H80.213c-5.647,0-10.24-4.593-10.24-10.24S74.566,0,80.213,0h54.613c5.647,0,10.24,4.593,10.24,10.24
	S140.474,20.48,134.827,20.48z M80.213,6.827c-1.882,0-3.413,1.531-3.413,3.413s1.531,3.413,3.413,3.413h54.613
	c1.882,0,3.413-1.531,3.413-3.413s-1.531-3.413-3.413-3.413H80.213z"/>
<path d="M100.693,30.72H83.627c-1.884,0-3.413-1.529-3.413-3.413s1.529-3.413,3.413-3.413h17.067c1.884,0,3.413,1.529,3.413,3.413
	S102.577,30.72,100.693,30.72z"/>
<path d="M93.867,44.373h-10.24c-1.884,0-3.413-1.529-3.413-3.413c0-1.884,1.529-3.413,3.413-3.413h10.24
	c1.884,0,3.413,1.529,3.413,3.413C97.28,42.844,95.751,44.373,93.867,44.373z"/>
<path d="M100.693,58.027H83.627c-1.884,0-3.413-1.529-3.413-3.413s1.529-3.413,3.413-3.413h17.067c1.884,0,3.413,1.529,3.413,3.413
	S102.577,58.027,100.693,58.027z"/>
<g>
</g>
<g>
</g>
<g>
</g>
<g>
</g>
<g>
</g>
<g>
</g>
<g>
</g>
<g>
</g>
<g>
</g>
<g>
</g>
<g>
</g>
<g>
</g>
<g>
</g>
<g>
</g>
<g>
</g>
</svg>
