<?xml version="1.0" encoding="iso-8859-1"?>
<!-- Generator: Adobe Illustrator 19.0.0, SVG Export Plug-In . SVG Version: 6.00 Build 0)  -->
<svg version="1.1" id="Layer_1" xmlns="http://www.w3.org/2000/svg" xmlns:xlink="http://www.w3.org/1999/xlink" x="0px" y="0px"
	 viewBox="0 0 504.123 504.123" style="enable-background:new 0 0 504.123 504.123;" xml:space="preserve">
<path style="fill:#EFEFEF;" d="M385.969,131.938V53.169h1.182c10.24,0,18.511-7.877,18.511-17.723s-8.271-17.723-18.511-17.723
	H258.757c-10.24,0-18.511,7.877-18.511,17.723s8.271,17.723,18.511,17.723h1.182v77.588
	c-71.286,24.812-122.092,92.948-122.092,172.505c0,101.218,81.92,183.138,183.138,183.138s183.138-81.92,183.138-183.138
	C504.123,224.886,454.892,158.326,385.969,131.938z"/>
<path style="fill:#E5E4E4;" d="M322.954,68.923h-63.015v61.44c-71.286,25.206-122.092,93.342-122.092,172.898
	c0,101.218,81.92,183.138,183.138,183.138h1.969V68.923z"/>
<path style="fill:#E2574C;" d="M291.84,267.815c72.468,0,155.963-66.954,176.443,0.394c3.545,11.422,4.332,23.631,4.332,36.234
	c0,85.465-68.923,154.782-153.6,154.782s-153.6-69.317-153.6-154.782c0-18.117,3.151-35.446,8.665-51.988
	C188.258,215.434,224.886,267.815,291.84,267.815z"/>
<path style="fill:#D8544A;" d="M322.954,264.271c-10.634,1.969-20.874,3.545-31.114,3.545c-66.954,0-103.582-52.382-117.76-15.36
	c-5.908,16.148-8.665,33.477-8.665,51.988c0,85.465,68.923,154.782,153.6,154.782h3.938
	C322.954,459.225,322.954,264.271,322.954,264.271z"/>
<path style="fill:#E87970;" d="M356.431,364.308c-14.178,0-25.6,11.422-25.6,25.6s11.422,25.6,25.6,25.6s25.6-11.422,25.6-25.6
	C382.031,375.729,370.609,364.308,356.431,364.308z M360.369,328.862c7.483,0,13.785-6.302,13.785-13.785
	s-6.302-13.785-13.785-13.785s-13.785,6.302-13.785,13.785C346.585,322.56,352.886,328.862,360.369,328.862z M411.569,324.923
	c-9.846,0-17.723,7.877-17.723,17.723s7.877,17.723,17.723,17.723c9.846,0,17.723-7.877,17.723-17.723
	S421.415,324.923,411.569,324.923z M423.385,269.785c-7.483,0-13.785,6.302-13.785,13.785s6.302,13.785,13.785,13.785
	s13.785-6.302,13.785-13.785C437.169,276.086,430.868,269.785,423.385,269.785z"/>
<path style="fill:#DCDCDC;" d="M259.938,53.169h126.031v15.754H259.938V53.169z"/>
<path style="fill:#EFEFEF;" d="M196.923,17.723H15.754C7.089,17.723,0,24.812,0,33.477v3.938c0,8.665,7.089,15.754,15.754,15.754
	v343.04c0,50.018,40.566,90.191,90.585,90.191s90.585-40.566,90.585-90.191V53.169c8.665,0,15.754-7.089,15.754-15.754v-3.938
	C212.677,24.812,205.588,17.723,196.923,17.723z"/>
<path style="fill:#DCDCDC;" d="M15.754,53.169h181.169v15.754H15.754V53.169z"/>
<path style="fill:#F4B459;" d="M133.12,135.877c19.298,0,35.84,9.058,35.84,9.058v251.274c0,34.658-28.357,62.622-63.015,62.622
	S42.93,430.868,42.93,396.209V144.935c0,0,16.148,9.058,35.84,9.058S114.609,135.877,133.12,135.877z"/>
<path style="fill:#F7CB8B;" d="M94.523,254.031c-12.997,0-23.631,10.634-23.631,23.631s10.634,23.631,23.631,23.631
	s23.631-10.634,23.631-23.631C118.154,264.665,107.52,254.031,94.523,254.031z M131.938,234.338c7.483,0,13.785-6.302,13.785-13.785
	s-6.302-13.785-13.785-13.785s-13.785,6.302-13.785,13.785S124.455,234.338,131.938,234.338z M131.938,324.923
	c-9.846,0-17.723,7.877-17.723,17.723s7.877,17.723,17.723,17.723s17.723-7.877,17.723-17.723S141.785,324.923,131.938,324.923z
	 M86.646,372.185c-6.695,0-11.815,5.12-11.815,11.815s5.12,11.815,11.815,11.815s11.815-5.12,11.815-11.815
	C98.462,377.698,92.948,372.185,86.646,372.185z"/>
<ellipse style="fill:#DE756C;" cx="271.75" cy="328.86" rx="31.508" ry="31.508"/>
<g>
</g>
<g>
</g>
<g>
</g>
<g>
</g>
<g>
</g>
<g>
</g>
<g>
</g>
<g>
</g>
<g>
</g>
<g>
</g>
<g>
</g>
<g>
</g>
<g>
</g>
<g>
</g>
<g>
</g>
</svg>
