<?xml version="1.0" encoding="iso-8859-1"?>
<!-- Generator: Adobe Illustrator 19.0.0, SVG Export Plug-In . SVG Version: 6.00 Build 0)  -->
<svg version="1.1" id="Capa_1" xmlns="http://www.w3.org/2000/svg" xmlns:xlink="http://www.w3.org/1999/xlink" x="0px" y="0px"
	 viewBox="0 0 191.147 191.147" style="enable-background:new 0 0 191.147 191.147;" xml:space="preserve">
<circle style="fill:#8C6B3B;" cx="14.473" cy="16.316" r="11.059"/>
<path d="M14.473,30.788C6.492,30.788,0,24.296,0,16.316S6.492,1.843,14.473,1.843s14.473,6.492,14.473,14.473
	S22.453,30.788,14.473,30.788z M14.473,8.67c-4.215,0-7.646,3.43-7.646,7.646s3.43,7.646,7.646,7.646s7.646-3.43,7.646-7.646
	S18.688,8.67,14.473,8.67z"/>
<circle style="fill:#2A8EE6;" cx="110.319" cy="34.748" r="22.118"/>
<path d="M110.319,60.279c-14.078,0-25.532-11.453-25.532-25.532S96.241,9.216,110.319,9.216s25.532,11.453,25.532,25.532
	S124.397,60.279,110.319,60.279z M110.319,16.043c-10.313,0-18.705,8.392-18.705,18.705s8.392,18.705,18.705,18.705
	s18.705-8.392,18.705-18.705S120.632,16.043,110.319,16.043z"/>
<circle style="fill:#EE5281;" cx="158.242" cy="119.535" r="29.491"/>
<path d="M158.242,152.439c-18.144,0-32.905-14.761-32.905-32.905s14.761-32.905,32.905-32.905s32.905,14.761,32.905,32.905
	S176.386,152.439,158.242,152.439z M158.242,93.457c-14.379,0-26.078,11.697-26.078,26.078c0,14.379,11.697,26.078,26.078,26.078
	c14.38,0,26.078-11.698,26.078-26.078C184.32,105.155,172.622,93.457,158.242,93.457z"/>
<circle style="fill:#85D839;" cx="47.65" cy="149.026" r="36.864"/>
<path d="M47.65,189.303c-22.209,0-40.277-18.068-40.277-40.277s18.068-40.277,40.277-40.277s40.277,18.068,40.277,40.277
	S69.859,189.303,47.65,189.303z M47.65,115.575c-18.446,0-33.451,15.005-33.451,33.451c0,18.446,15.005,33.451,33.451,33.451
	s33.451-15.005,33.451-33.451C81.101,130.582,66.096,115.575,47.65,115.575z"/>
<path d="M47.65,173.466c-13.476,0-24.439-10.964-24.439-24.439c0-1.884,1.529-3.413,3.413-3.413s3.413,1.529,3.413,3.413
	c0,9.711,7.9,17.613,17.613,17.613c1.884,0,3.413,1.529,3.413,3.413C51.063,171.936,49.534,173.466,47.65,173.466z"/>
<path d="M88.204,34.476c-0.198,0-0.396-0.017-0.597-0.053L24.938,23.364c-1.857-0.328-3.096-2.097-2.768-3.954
	c0.328-1.857,2.104-3.094,3.954-2.768l62.669,11.059c1.857,0.328,3.096,2.097,2.768,3.954
	C91.269,33.311,89.829,34.476,88.204,34.476z"/>
<path d="M66.079,119.262c-0.567,0-1.14-0.142-1.671-0.439c-1.644-0.925-2.225-3.005-1.302-4.649l33.178-58.982
	c0.925-1.644,3.004-2.227,4.649-1.302c1.644,0.925,2.225,3.005,1.302,4.649l-33.178,58.982
	C68.43,118.636,67.272,119.262,66.079,119.262z"/>
<path d="M84.512,145.067c-1.529,0-2.92-1.034-3.309-2.587c-0.457-1.828,0.655-3.681,2.485-4.139l44.237-11.059
	c1.823-0.454,3.681,0.654,4.139,2.485c0.457,1.828-0.655,3.681-2.485,4.139l-44.237,11.059
	C85.064,145.034,84.785,145.067,84.512,145.067z"/>
<g>
</g>
<g>
</g>
<g>
</g>
<g>
</g>
<g>
</g>
<g>
</g>
<g>
</g>
<g>
</g>
<g>
</g>
<g>
</g>
<g>
</g>
<g>
</g>
<g>
</g>
<g>
</g>
<g>
</g>
</svg>
