<?xml version="1.0" encoding="iso-8859-1"?>
<!-- Generator: Adobe Illustrator 19.0.0, SVG Export Plug-In . SVG Version: 6.00 Build 0)  -->
<svg version="1.1" id="Layer_1" xmlns="http://www.w3.org/2000/svg" xmlns:xlink="http://www.w3.org/1999/xlink" x="0px" y="0px"
	 viewBox="0 0 504.123 504.123" style="enable-background:new 0 0 504.123 504.123;" xml:space="preserve">
<circle style="fill:#0793D1;" cx="43.232" cy="218.033" r="26.12"/>
<path style="fill:#097ACE;" d="M43.225,191.953c14.431-0.008,26.12,11.674,26.104,26.112c0.016,14.407-11.674,26.096-26.104,26.112"
	/>
<g>
	<path style="fill:#25BEF4;" d="M28.164,205.619c4.766,0.016,2.725,6.057,2.725,13.517c0,7.452,2.032,13.501-2.725,13.509
		c-4.758,0-8.633-6.042-8.617-13.501C19.547,211.669,23.398,205.619,28.164,205.619z"/>
	<circle style="fill:#25BEF4;" cx="30.921" cy="201.57" r="1.638"/>
</g>
<path style="fill:#CCC2B2;" d="M205.151,225.138c-2.048,2.048-4.86,3.3-7.971,3.3l-139.784,0.008
	c-6.231-0.008-11.264-5.041-11.264-11.264c0-6.215,5.033-11.264,11.264-11.264h139.784c6.215-0.016,11.264,5.049,11.264,11.248
	C208.443,220.294,207.183,223.098,205.151,225.138z"/>
<circle style="fill:#0793D1;" cx="160.386" cy="70.089" r="32.839"/>
<path style="fill:#097ACE;" d="M160.378,37.242c18.156,0,32.847,14.698,32.847,32.839c0,18.156-14.706,32.847-32.847,32.847"/>
<g>
	<path style="fill:#25BEF4;" d="M141.442,54.445c6.002,0.016,3.434,7.617,3.434,16.998s2.568,16.983-3.434,16.983
		c-6.002,0-10.847-7.609-10.847-16.991S135.456,54.461,141.442,54.445z"/>
	<circle style="fill:#25BEF4;" cx="144.9" cy="49.388" r="2.048"/>
</g>
<path style="fill:#CCC2B2;" d="M170.193,242.617c-2.048,2.04-4.86,3.293-7.971,3.293c-6.215,0-11.264-5.033-11.264-11.248v-139.8
	c0-6.215,5.033-11.264,11.28-11.264c6.199,0,11.248,5.049,11.248,11.264v139.8C173.485,237.757,172.225,240.585,170.193,242.617z"/>
<circle style="fill:#FF7F00;" cx="159.716" cy="214.741" r="46.45"/>
<path style="fill:#EA5807;" d="M159.716,168.29c25.663,0.016,46.458,20.795,46.458,46.458
	c-0.016,25.647-20.819,46.442-46.442,46.442"/>
<g>
	<path style="fill:#FFB000;" d="M132.935,192.622c8.476,0,4.829,10.752,4.829,24.033c0.016,13.273,3.631,24.025-4.844,24.04
		c-8.444-0.016-15.321-10.768-15.336-24.04C117.583,203.382,124.459,192.622,132.935,192.622z"/>
	<circle style="fill:#FFB000;" cx="137.834" cy="185.423" r="2.907"/>
</g>
<path style="fill:#CCC2B2;" d="M350.456,225.138c-2.048,2.048-4.86,3.293-7.971,3.3l-139.784,0.008
	c-6.215,0-11.264-5.041-11.264-11.264c0-6.215,5.049-11.264,11.264-11.264h139.784c6.231,0,11.264,5.033,11.264,11.264
	C353.749,220.294,352.488,223.106,350.456,225.138z"/>
<circle style="fill:#0793D1;" cx="364.761" cy="214.741" r="75.067"/>
<path style="fill:#097ACE;" d="M364.753,139.674c41.48,0.008,75.075,33.619,75.075,75.067s-33.619,75.059-75.075,75.067"/>
<g>
	<path style="fill:#25BEF4;" d="M321.469,178.995c13.69,0.008,7.798,17.392,7.798,38.841s5.876,38.841-7.814,38.833
		c-13.69,0.016-24.797-17.384-24.797-38.833S307.763,178.995,321.469,178.995z"/>
	<path style="fill:#25BEF4;" d="M332.686,164.092c1.827,1.827,1.827,4.789-0.016,6.632c-1.812,1.82-4.781,1.827-6.617,0
		c-1.843-1.843-1.827-4.797,0-6.632C327.881,162.257,330.843,162.257,332.686,164.092z"/>
</g>
<circle style="fill:#0793D1;" cx="87.123" cy="478.602" r="16.549"/>
<path style="fill:#097ACE;" d="M75.41,466.865c6.459-6.467,16.935-6.467,23.402,0c6.459,6.451,6.459,16.927,0,23.41"/>
<g>
	<path style="fill:#25BEF4;" d="M74.795,479.736c2.127-2.135,3.923,1.481,7.263,4.836c3.34,3.34,6.971,5.128,4.844,7.263
		c-2.135,2.135-6.585,1.166-9.925-2.182C73.63,486.305,72.661,481.879,74.795,479.736z"/>
	<circle style="fill:#25BEF4;" cx="74.212" cy="476.711" r="1.032"/>
</g>
<path style="fill:#CCC2B2;" d="M162.828,409.19c0,1.827-0.709,3.655-2.095,5.049l-62.614,62.637c-2.812,2.781-7.31,2.781-10.09,0
	c-2.796-2.788-2.796-7.318,0-10.098l62.614-62.629c2.788-2.788,7.31-2.788,10.09,0C162.119,405.536,162.828,407.363,162.828,409.19z
	"/>
<circle style="fill:#0793D1;" cx="73.307" cy="359.739" r="20.811"/>
<path style="fill:#097ACE;" d="M58.592,345.064c8.105-8.129,21.291-8.129,29.428,0c8.121,8.121,8.121,21.299,0,29.428"/>
<g>
	<path style="fill:#25BEF4;" d="M57.813,361.251c2.694-2.686,4.939,1.875,9.153,6.081c4.183,4.198,8.751,6.459,6.073,9.137
		c-2.694,2.694-8.279,1.457-12.477-2.749C56.363,369.522,55.119,363.937,57.813,361.251z"/>
	<circle style="fill:#25BEF4;" cx="57.104" cy="357.431" r="1.3"/>
</g>
<path style="fill:#CCC2B2;" d="M154.998,432.679c0,1.82-0.693,3.655-2.095,5.057c-2.788,2.788-7.31,2.788-10.09,0l-62.614-62.637
	c-2.796-2.788-2.796-7.302,0-10.082c2.773-2.788,7.294-2.788,10.075,0l62.629,62.637
	C154.305,429.032,154.998,430.852,154.998,432.679z"/>
<circle style="fill:#FF7F00;" cx="137.811" cy="424.881" r="29.428"/>
<path style="fill:#EA5807;" d="M117.008,404.07c11.492-11.492,30.121-11.492,41.614,0c11.492,11.5,11.508,30.129,0,41.622"/>
<g>
	<path style="fill:#FFB000;" d="M115.905,426.977c3.797-3.797,6.987,2.647,12.942,8.602c5.939,5.939,12.383,9.129,8.602,12.934
		c-3.797,3.789-11.689,2.056-17.644-3.891C113.857,438.666,112.1,430.773,115.905,426.977z"/>
	<circle style="fill:#FFB000;" cx="114.92" cy="421.573" r="1.843"/>
</g>
<path style="fill:#CCC2B2;" d="M227.923,344.088c0,1.82-0.693,3.647-2.079,5.049l-62.629,62.637c-2.788,2.788-7.31,2.788-10.09,0
	c-2.788-2.788-2.788-7.31,0-10.09l62.629-62.629c2.796-2.788,7.31-2.788,10.09,0C227.23,340.441,227.923,342.26,227.923,344.088z"/>
<circle style="fill:#0793D1;" cx="229.687" cy="333.021" r="47.577"/>
<path style="fill:#097ACE;" d="M196.045,299.386c18.582-18.566,48.695-18.566,67.277,0c18.55,18.574,18.566,48.695,0,67.269"/>
<g>
	<path style="fill:#25BEF4;" d="M194.272,336.392c6.136-6.12,11.296,4.301,20.89,13.911c9.594,9.61,20.031,14.769,13.895,20.897
		c-6.12,6.136-18.889,3.324-28.507-6.286C190.948,355.304,188.121,342.544,194.272,336.392z"/>
	<circle style="fill:#25BEF4;" cx="192.61" cy="327.68" r="2.97"/>
</g>
<path style="fill:#ABD3DD;" d="M471.107,464.967c0,21.63-17.542,39.156-39.14,39.156h-12.249c-21.63,0-39.156-17.526-39.156-39.156
	V22.024C380.562,0.41,398.088,0,419.718,0h12.249c21.599,0,39.14,0.41,39.14,22.024V464.967z"/>
<path style="fill:#8DC6D3;" d="M419.718,0h12.249c21.599,0,39.14,0.41,39.14,22.024v442.943c0,21.63-17.542,39.156-39.14,39.156
	h-12.249"/>
<path style="fill:#25BEF4;" d="M380.562,215.292v249.675c0,21.63,17.526,39.156,39.156,39.156h12.249
	c21.599,0,39.14-17.526,39.14-39.156V215.292H380.562z"/>
<path style="fill:#0793D1;" d="M380.562,464.967c0,21.63,17.526,39.156,39.156,39.156h12.249c21.599,0,39.14-17.526,39.14-39.156
	V233.015h-90.545V464.967z"/>
<path style="fill:#097ACE;" d="M419.718,504.123h12.249c21.599,0,39.14-17.526,39.14-39.156V233.015h-51.381v271.108H419.718z"/>
<path style="fill:#8DC6D3;" d="M466.948,106.953l4.151-4.151V22.024C471.099,0.41,453.557,0,431.959,0H419.71
	c-21.142,0-38.235,0.528-39.014,20.732L466.948,106.953z"/>
<path style="fill:#C4E3E8;" d="M487.01,9.783c0,5.411-4.372,9.791-9.783,9.791H374.441c-5.404,0-9.783-4.387-9.783-9.791l0,0
	c0-5.396,4.387-9.783,9.783-9.783h102.786C482.639,0,487.01,4.395,487.01,9.783L487.01,9.783z"/>
<path style="fill:#ABD3DD;" d="M487.01,9.783L487.01,9.783c0,5.411-4.372,9.791-9.783,9.791H374.441
	c-5.404,0-9.783-4.387-9.783-9.791l0,0"/>
<g>
	<path style="fill:#C4E3E8;" d="M429.903,62.204c0,1.363-1.079,2.458-2.434,2.458H394.85c-1.371,0-2.458-1.095-2.458-2.458l0,0
		c0-1.355,1.095-2.442,2.458-2.442h32.618C428.824,59.77,429.903,60.857,429.903,62.204L429.903,62.204z"/>
	<path style="fill:#C4E3E8;" d="M410.337,80.959c0,1.363-1.095,2.45-2.434,2.45h-13.044c-1.371,0-2.458-1.087-2.458-2.45l0,0
		c0-1.355,1.095-2.442,2.458-2.442h13.044C409.242,78.525,410.337,79.604,410.337,80.959L410.337,80.959z"/>
	<path style="fill:#C4E3E8;" d="M429.903,98.918c0,1.363-1.079,2.45-2.434,2.45H394.85c-1.371,0-2.458-1.087-2.458-2.45l0,0
		c0-1.363,1.095-2.45,2.458-2.45h32.618C428.824,96.469,429.903,97.556,429.903,98.918L429.903,98.918z"/>
	<path style="fill:#C4E3E8;" d="M410.337,117.665c0,1.363-1.095,2.458-2.434,2.458h-13.044c-1.371,0-2.458-1.103-2.458-2.458l0,0
		c0-1.355,1.095-2.442,2.458-2.442h13.044C409.242,115.232,410.337,116.319,410.337,117.665L410.337,117.665z"/>
	<path style="fill:#C4E3E8;" d="M429.903,135.625c0,1.355-1.079,2.458-2.434,2.458H394.85c-1.371,0-2.458-1.111-2.458-2.458l0,0
		c0-1.355,1.095-2.45,2.458-2.45h32.618C428.824,133.175,429.903,134.27,429.903,135.625L429.903,135.625z"/>
	<path style="fill:#C4E3E8;" d="M410.337,154.38c0,1.378-1.095,2.45-2.434,2.45h-13.044c-1.371,0-2.458-1.071-2.458-2.45l0,0
		c0-1.355,1.095-2.426,2.458-2.426h13.044C409.242,151.954,410.337,153.025,410.337,154.38L410.337,154.38z"/>
	<path style="fill:#C4E3E8;" d="M429.903,172.331c0,1.371-1.079,2.45-2.434,2.45H394.85c-1.371,0-2.458-1.079-2.458-2.45l0,0
		c0-1.355,1.095-2.442,2.458-2.442h32.618C428.824,169.889,429.903,170.976,429.903,172.331L429.903,172.331z"/>
	<path style="fill:#C4E3E8;" d="M410.337,191.086c0,1.355-1.095,2.458-2.434,2.458h-13.044c-1.371,0-2.458-1.111-2.458-2.458l0,0
		c0-1.355,1.095-2.45,2.458-2.45h13.044C409.242,188.637,410.337,189.731,410.337,191.086L410.337,191.086z"/>
	<path style="fill:#C4E3E8;" d="M429.903,209.038c0,1.363-1.079,2.458-2.434,2.458H394.85c-1.371,0-2.458-1.103-2.458-2.458l0,0
		c0-1.355,1.095-2.45,2.458-2.45h32.618C428.824,206.596,429.903,207.683,429.903,209.038L429.903,209.038z"/>
	<path style="fill:#C4E3E8;" d="M410.337,227.793c0,1.355-1.095,2.458-2.434,2.458h-13.044c-1.371,0-2.458-1.111-2.458-2.458l0,0
		c0-1.331,1.095-2.442,2.458-2.442h13.044C409.242,225.351,410.337,226.462,410.337,227.793L410.337,227.793z"/>
	<path style="fill:#C4E3E8;" d="M429.903,245.76c0,1.347-1.079,2.45-2.434,2.45H394.85c-1.371,0-2.458-1.103-2.458-2.45l0,0
		c0-1.363,1.095-2.458,2.458-2.458h32.618C428.824,243.31,429.903,244.397,429.903,245.76L429.903,245.76z"/>
	<path style="fill:#C4E3E8;" d="M410.337,264.499c0,1.363-1.095,2.458-2.434,2.458h-13.044c-1.371,0-2.458-1.103-2.458-2.458l0,0
		c0-1.355,1.095-2.442,2.458-2.442h13.044C409.242,262.065,410.337,263.144,410.337,264.499L410.337,264.499z"/>
	<path style="fill:#C4E3E8;" d="M429.903,282.451c0,1.363-1.079,2.458-2.434,2.458H394.85c-1.371,0-2.458-1.095-2.458-2.458l0,0
		c0-1.363,1.095-2.45,2.458-2.45h32.618C428.824,280.009,429.903,281.096,429.903,282.451L429.903,282.451z"/>
	<path style="fill:#C4E3E8;" d="M410.337,301.221c0,1.355-1.095,2.45-2.434,2.45h-13.044c-1.371,0-2.458-1.095-2.458-2.45l0,0
		c0-1.363,1.095-2.458,2.458-2.458h13.044C409.242,298.772,410.337,299.859,410.337,301.221L410.337,301.221z"/>
	<path style="fill:#C4E3E8;" d="M429.903,319.173c0,1.363-1.079,2.45-2.434,2.45H394.85c-1.371,0-2.458-1.087-2.458-2.45l0,0
		c0-1.355,1.095-2.45,2.458-2.45h32.618C428.824,316.723,429.903,317.818,429.903,319.173L429.903,319.173z"/>
	<path style="fill:#C4E3E8;" d="M410.337,337.912c0,1.363-1.095,2.458-2.434,2.458h-13.044c-1.371,0-2.458-1.095-2.458-2.458l0,0
		c0-1.363,1.095-2.45,2.458-2.45h13.044C409.242,335.47,410.337,336.557,410.337,337.912L410.337,337.912z"/>
	<path style="fill:#C4E3E8;" d="M429.903,355.872c0,1.355-1.079,2.458-2.434,2.458H394.85c-1.371,0-2.458-1.103-2.458-2.458l0,0
		c0-1.347,1.095-2.45,2.458-2.45h32.618C428.824,353.422,429.903,354.525,429.903,355.872L429.903,355.872z"/>
	<path style="fill:#C4E3E8;" d="M410.337,374.634c0,1.363-1.095,2.45-2.434,2.45h-13.044c-1.371,0-2.458-1.087-2.458-2.45l0,0
		c0-1.355,1.095-2.45,2.458-2.45h13.044C409.242,372.185,410.337,373.28,410.337,374.634L410.337,374.634z"/>
	<path style="fill:#C4E3E8;" d="M429.903,392.586c0,1.355-1.079,2.458-2.434,2.458H394.85c-1.371,0-2.458-1.103-2.458-2.458l0,0
		c0-1.355,1.095-2.458,2.458-2.458h32.618C428.824,390.128,429.903,391.231,429.903,392.586L429.903,392.586z"/>
	<path style="fill:#C4E3E8;" d="M410.337,411.341c0,1.363-1.095,2.45-2.434,2.45h-13.044c-1.371,0-2.458-1.087-2.458-2.45l0,0
		c0-1.355,1.095-2.45,2.458-2.45h13.044C409.242,408.891,410.337,409.986,410.337,411.341L410.337,411.341z"/>
	<path style="fill:#C4E3E8;" d="M429.903,429.292c0,1.355-1.079,2.442-2.434,2.442H394.85c-1.371,0-2.458-1.087-2.458-2.442l0,0
		c0-1.363,1.095-2.45,2.458-2.45h32.618C428.824,426.843,429.903,427.93,429.903,429.292L429.903,429.292z"/>
	<path style="fill:#C4E3E8;" d="M410.337,448.047c0,1.355-1.095,2.458-2.434,2.458h-13.044c-1.371,0-2.458-1.103-2.458-2.458l0,0
		c0-1.355,1.095-2.458,2.458-2.458h13.044C409.242,445.59,410.337,446.692,410.337,448.047L410.337,448.047z"/>
</g>
<g>
</g>
<g>
</g>
<g>
</g>
<g>
</g>
<g>
</g>
<g>
</g>
<g>
</g>
<g>
</g>
<g>
</g>
<g>
</g>
<g>
</g>
<g>
</g>
<g>
</g>
<g>
</g>
<g>
</g>
</svg>
