<?xml version="1.0" encoding="utf-8"?>
<!-- Generator: Adobe Illustrator 17.0.1, SVG Export Plug-In . SVG Version: 6.00 Build 0)  -->
<!DOCTYPE svg PUBLIC "-//W3C//DTD SVG 1.1//EN" "http://www.w3.org/Graphics/SVG/1.1/DTD/svg11.dtd">
<svg version="1.1" id="Camada_1" xmlns="http://www.w3.org/2000/svg" xmlns:xlink="http://www.w3.org/1999/xlink" x="0px" y="0px"
	 width="213px" height="114.75px" viewBox="0 0 213 114.75" enable-background="new 0 0 213 114.75" xml:space="preserve">
<g>
	<g>
		<g>
			<linearGradient id="SVGID_1_" gradientUnits="userSpaceOnUse" x1="2.6427" y1="57.3228" x2="211.3637" y2="57.3228">
				<stop  offset="0" style="stop-color:#00468C"/>
				<stop  offset="0.5" style="stop-color:#005DA4"/>
				<stop  offset="1" style="stop-color:#00468C"/>
			</linearGradient>
			<path fill="url(#SVGID_1_)" d="M106.998,114.016c-2.333,0-4.574-0.501-6.667-1.487L11.81,71.578
				c-5.564-2.531-9.167-8.131-9.167-14.251c0-6.123,3.603-11.718,9.181-14.255L100.348,2.11c2.076-0.979,4.317-1.48,6.65-1.48
				c2.328,0,4.567,0.502,6.662,1.482l88.534,40.963c5.564,2.528,9.17,8.127,9.17,14.252c0,6.113-3.603,11.706-9.168,14.251
				l-88.549,40.964C111.564,113.521,109.326,114.016,106.998,114.016z"/>
			<path fill="#FFFFFF" d="M11.613,57.327c0-2.571,1.64-4.921,3.994-5.993c0.004-0.003,82.021-32.269,99.624-39.194
				c0.565-0.223,0.943-0.76,0.961-1.367c0.018-0.606-0.328-1.166-0.879-1.421l-5.143-2.38c-2.022-0.936-4.353-0.934-6.375,0.002
				C87.499,14.517,14.28,48.408,14.273,48.412C10.782,50,8.524,53.501,8.524,57.327c0,3.825,2.248,7.32,5.732,8.909
				c0.966,0.448,73.333,33.919,89.541,41.423c2.02,0.936,4.355,0.938,6.375,0.003l5.148-2.382c0.551-0.255,0.897-0.814,0.879-1.421
				c-0.018-0.607-0.396-1.145-0.962-1.367C70.386,84.871,32.045,69.786,15.602,63.323C13.248,62.248,11.613,59.897,11.613,57.327z"
				/>
			<path fill="#4D8EC6" d="M199.744,48.414c-1.459-0.674-60.262-27.882-74.264-34.359c-1.879-0.87-4.033-0.933-5.96-0.176
				c-1.414,0.556-3.108,1.222-4.587,1.803c-0.58,0.229-0.962,0.788-0.962,1.412s0.382,1.184,0.962,1.412
				c16.397,6.447,83.392,32.79,83.464,32.818c2.362,1.081,3.999,3.432,3.999,6.002c0,2.572-1.637,4.925-3.986,5.997
				c-8.873,3.487-66.693,26.204-83.518,32.814c-0.58,0.228-0.962,0.788-0.962,1.411c-0.001,0.624,0.381,1.184,0.961,1.413
				c2.069,0.815,3.485,1.371,4.603,1.81c1.926,0.756,4.077,0.691,5.955-0.177c14.137-6.536,74.295-34.35,74.295-34.35
				c3.487-1.592,5.743-5.092,5.743-8.918C205.488,53.507,203.238,50.003,199.744,48.414z"/>
		</g>
		<g>
			<path fill="#FFFFFF" d="M154.209,43.918c-7.764,0-14.06,5.998-14.06,13.401c0,7.401,6.297,13.401,14.06,13.401
				c7.765,0,14.058-6,14.058-13.401C168.268,49.916,161.974,43.918,154.209,43.918z M154.209,65.74c-4.452,0-8.063-3.77-8.063-8.421
				c0-4.655,3.61-8.422,8.063-8.422c4.453,0,8.062,3.767,8.062,8.422C162.271,61.97,158.662,65.74,154.209,65.74z"/>
			<path fill="#FFFFFF" d="M110.203,44.361H95.276c-1.4,0-2.536,1.139-2.536,2.542c0,1.402,1.136,2.536,2.536,2.536h4.531v17.946
				c0,1.617,1.314,2.93,2.932,2.93c1.62,0,2.936-1.313,2.936-2.93V49.439h4.529c1.406,0,2.535-1.134,2.535-2.536
				C112.738,45.5,111.609,44.361,110.203,44.361z"/>
			<path fill="#FFFFFF" d="M134.558,44.188c-1.617,0-2.935,1.317-2.935,2.937v7.416h-10.893v-7.416c0-1.62-1.313-2.937-2.935-2.937
				c-1.616,0-2.93,1.317-2.93,2.937v20.261c0,1.617,1.313,2.93,2.93,2.93c1.622,0,2.935-1.313,2.935-2.93V59.52h10.893v7.865
				c0,1.617,1.317,2.93,2.935,2.93c1.623,0,2.934-1.313,2.934-2.93V47.124C137.491,45.504,136.181,44.188,134.558,44.188z"/>
			<path fill="#FFFFFF" d="M65.706,63.904c-0.562,0-1.081,0.178-1.509,0.475c-1.264,0.867-2.775,1.368-4.399,1.368
				c-4.453,0-8.064-3.771-8.064-8.422c0-4.652,3.611-8.424,8.064-8.424c1.596,0,3.079,0.488,4.329,1.322
				c0.444,0.335,0.987,0.532,1.579,0.532c1.459,0,2.642-1.183,2.642-2.641c0-1.026-0.586-1.909-1.439-2.348
				c-2.088-1.168-4.516-1.842-7.11-1.842c-7.764,0-14.06,5.997-14.06,13.399s6.296,13.403,14.06,13.403
				c2.553,0,4.941-0.655,7.007-1.789c0.908-0.414,1.543-1.332,1.543-2.398C68.348,65.085,67.165,63.904,65.706,63.904z"/>
			<path fill="#FFFFFF" d="M94.952,66.507L85.44,45.875c-0.5-1.059-1.583-1.651-2.684-1.582c-1.103-0.069-2.184,0.523-2.681,1.582
				l-9.513,20.632c-0.649,1.38-0.056,3.027,1.326,3.677c1.383,0.648,3.027,0.048,3.677-1.332l1.24-2.688h11.899l1.242,2.688
				c0.649,1.38,2.293,1.98,3.677,1.332C95.006,69.534,95.601,67.887,94.952,66.507z M78.977,61.463l3.779-8.2l3.781,8.2H78.977z"/>
		</g>
	</g>
</g>
</svg>
