<svg class="_3XLabinph_" enable-background="new 0 0 16 16" height="100%" fill="black" version="1.1" viewBox="0 0 108 59" xmlns="http://www.w3.org/2000/svg" x="0px" width="100%" y="0px" data-reactid="20"><defs data-reactid="21"><linearGradient id="linearGradient-1" y1="50%" x1=".00025510%" y2="50%" data-reactid="22"><stop stop-color="#88C425" offset="0" data-reactid="23"></stop><stop stop-color="#88C425" offset=".5" data-reactid="24"></stop><stop stop-color="#88C425" offset="1" data-reactid="25"></stop></linearGradient></defs><g id="Page-1" fill-rule="evenodd" fill="none" data-reactid="26"><title data-reactid="27">Logo da Catho Educação</title><g id="Desktop---Course-Page---Partner---No-Discount" transform="translate(-132 -20)" data-reactid="28"><g id="Header" transform="translate(0 -3)" data-reactid="29"><g id="logo-catho-edu" transform="translate(132 22.806)" data-reactid="30"><g id="Camada_1" data-reactid="31"><g fill-rule="nonzero" data-reactid="32"><g id="XMLID_238_" data-reactid="33"><g id="XMLID_250_" data-reactid="34"><g id="XMLID_251_" data-reactid="35"><g id="XMLID_252_" data-reactid="36"><g id="XMLID_253_" data-reactid="37"><path id="XMLID_285_" fill="url(#linearGradient-1)" d="m53.826 58.381c-1.194 0-2.349-0.253-3.425-0.761l-45.566-21.022c-2.8581-1.308-4.7176-4.177-4.7176-7.319 0.00004-3.143 1.8595-6.012 4.7171-7.32l45.566-21.022c1.077-0.50758 2.232-0.76133 3.426-0.76133s2.349 0.25375 3.425 0.76124l45.569 21.022c2.85 1.288 4.71 4.177 4.71 7.32 0 3.142-1.86 6.011-4.71 7.319l-45.569 21.022c-1.076 0.508-2.231 0.761-3.425 0.761z" data-reactid="38"></path><path id="XMLID_282_" fill="#fff" d="m4.7367 28.732c0-1.327 0.8416-2.518 2.0551-3.084 0 0 42.219-16.552 51.262-20.124 0.293-0.1172 0.489-0.3905 0.489-0.7028s-0.176-0.6051-0.45-0.7222l-2.643-1.2297c-1.037-0.488-2.231-0.488-3.288 0-8.377 3.8648-46.075 21.257-46.075 21.276-1.8005 0.82-2.9553 2.616-2.9553 4.567 0 1.972 1.1548 3.748 2.9555 4.568 0.4893 0.234 37.737 17.411 46.075 21.256 1.037 0.488 2.251 0.488 3.288 0l2.643-1.23c0.274-0.136 0.469-0.409 0.45-0.722 0-0.312-0.196-0.585-0.489-0.702-23.077-9.038-42.807-16.787-51.282-20.105-1.1937-0.527-2.0353-1.737-2.0353-3.045z" data-reactid="39"></path><path id="XMLID_279_" fill="#9FD634" d="m101.54 24.145c-0.74-0.351-30.999-14.307-38.221-17.626-0.959-0.4486-2.075-0.4876-3.073-0.0972-0.724 0.2927-1.605 0.6246-2.369 0.9174-0.293 0.1171-0.489 0.4099-0.489 0.7222s0.196 0.605 0.489 0.7222c8.436 3.3184 42.923 16.825 42.963 16.844 1.21 0.547 2.06 1.757 2.06 3.084 0 1.328-0.85 2.518-2.06 3.084-4.56 1.796-34.331 13.449-42.982 16.845-0.294 0.118-0.489 0.41-0.489 0.723 0 0.312 0.195 0.605 0.489 0.722 1.057 0.41 1.801 0.703 2.368 0.937 0.998 0.39 2.094 0.351 3.073-0.098 7.281-3.357 38.231-17.626 38.231-17.626 1.8-0.819 2.95-2.615 2.95-4.567 0.02-1.971-1.13-3.767-2.94-4.587z" data-reactid="40"></path></g></g></g></g><g id="XMLID_240_" fill="#fff" transform="translate(26.228 19.519)" data-reactid="41"><path id="XMLID_247_" d="m48.796 0.019519c-3.484 0-6.323 2.6936-6.323 5.9924 0 3.3182 2.819 5.9921 6.323 5.9921 3.484 0 6.322-2.6934 6.322-5.9921-0.02-3.2988-2.838-5.9924-6.322-5.9924zm0 9.7791c-1.997 0-3.621-1.6787-3.621-3.7672 0-2.0886 1.624-3.7672 3.621-3.7672 1.996 0 3.621 1.6786 3.621 3.7672 0 2.0885-1.625 3.7672-3.621 3.7672z" data-reactid="42"></path><path id="XMLID_246_" d="m29.027 0.23423h-6.694c-0.627 0-1.135 0.50749-1.135 1.1321 0 0.6246 0.508 1.1321 1.135 1.1321h2.035v8.0416c0 0.722 0.588 1.308 1.312 1.308s1.311-0.586 1.311-1.308v-8.0416h2.036c0.626 0 1.135-0.5075 1.135-1.1321 0.02-0.62458-0.489-1.1321-1.135-1.1321z" data-reactid="43"></path><path id="XMLID_245_" d="m39.968 0.15615c-0.724 0-1.311 0.58557-1.311 1.3078v3.3182h-4.894v-3.3183c0-0.72218-0.587-1.3078-1.311-1.3078-0.724 0.00005-1.311 0.58562-1.311 1.3078v9.0761c0 0.722 0.587 1.308 1.311 1.308s1.311-0.586 1.311-1.308v-3.5131h4.894v3.5131c0 0.722 0.587 1.308 1.311 1.308s1.312-0.586 1.312-1.308v-9.0761c0-0.72218-0.588-1.3078-1.312-1.3078z" data-reactid="44"></path><path id="XMLID_244_" d="m9.0623 8.9788c-0.2544 0-0.4893 0.078-0.685 0.2147-0.5677 0.3903-1.2527 0.6051-1.9769 0.6051-1.9965 0-3.621-1.6787-3.621-3.7672 0-2.0886 1.6245-3.7672 3.621-3.7672 0.7242 0 1.3897 0.2147 1.9377 0.5856 0.1957 0.1561 0.4502 0.2342 0.7046 0.2342 0.6459 0 1.1943-0.527 1.1943-1.1907 0-0.4489-0.2548-0.8588-0.6462-1.054-0.9395-0.527-2.0356-0.81978-3.1904-0.81978-3.484-0.000001-6.3221 2.6936-6.3221 5.9924-0.000008 3.2987 2.8185 5.9921 6.3221 5.9921 1.1548 0 2.2117-0.293 3.1512-0.8 0.4111-0.176 0.6854-0.605 0.6854-1.074 0-0.6242-0.5288-1.1512-1.1747-1.1512z" data-reactid="45"></path><path id="XMLID_241_" d="m22.196 10.15l-4.267-9.2326c-0.215-0.46846-0.705-0.74173-1.214-0.70269-0.489-0.03904-0.978 0.23423-1.194 0.70268l-4.286 9.2326c-0.294 0.625-0.02 1.347 0.587 1.639 0.626 0.293 1.351 0.02 1.644-0.605l0.548-1.2098h5.363l0.548 1.2098c0.294 0.625 1.038 0.879 1.644 0.605 0.646-0.292 0.901-1.034 0.627-1.639zm-7.183-2.2643l1.702-3.6696 1.703 3.6696h-3.405z" data-reactid="46"></path></g><g id="Group" fill="#fff" transform="translate(33.666 32.402)" data-reactid="47"><path id="Shape" d="m0.019573 4.1576v-1.6006c0-0.2147 0.058719-0.3709 0.19573-0.4685 0.11744-0.0976 0.27403-0.1561 0.41104-0.1561h1.9965c0.1761 0 0.3327 0.0585 0.4306 0.1561s0.1566 0.2538 0.1566 0.4295c0 0.1561-0.0392 0.2927-0.137 0.4099-0.0979 0.1171-0.2545 0.1561-0.4502 0.1561h-1.3506v1.015h1.2527c0.1957 0 0.3328 0.0586 0.4502 0.1757 0.0979 0.1171 0.1566 0.2537 0.1566 0.4099 0 0.1561-0.0587 0.2928-0.1566 0.4099-0.1174 0.1171-0.2545 0.1756-0.4306 0.1756h-1.2527v1.0345h1.3506c0.2153 0 0.3914 0.0586 0.4893 0.1562 0.0978 0.1171 0.1566 0.2342 0.1566 0.3904 0 0.1757-0.0588 0.3318-0.1566 0.4294-0.0979 0.1171-0.274 0.1757-0.4893 0.1757h-1.9573c-0.21535 0-0.37193-0.0586-0.48937-0.1757s-0.17616-0.2733-0.17616-0.4489l0.000003-2.6741z" data-reactid="48"></path><path id="Shape" d="m3.8363 2.5765c0-0.1952 0.0587-0.3513 0.1566-0.4684 0.1174-0.1172 0.2544-0.1952 0.4697-0.1952h1.4876c0.5676 0 1.0374 0.1171 1.3897 0.3513s0.6263 0.5075 0.8416 0.8198c0.274 0.4489 0.4306 0.9955 0.4306 1.6201 0 0.3513-0.0587 0.7027-0.1761 1.0345-0.1175 0.3318-0.2936 0.6246-0.5285 0.8979-0.2349 0.2537-0.4893 0.4684-0.8025 0.6246-0.3132 0.1561-0.6655 0.2342-1.0374 0.2342h-1.5658c-0.1957 0-0.3523-0.0585-0.4698-0.1757-0.1174-0.1171-0.1761-0.2732-0.1761-0.4684v-4.2747h-0.0196zm1.2723 0.5075v3.2206h0.7242c0.411 0 0.7633-0.1561 1.0373-0.4489 0.1175-0.1171 0.1958-0.2928 0.2545-0.5075s0.0978-0.4489 0.0978-0.7027c0-0.4879-0.0978-0.8588-0.3131-1.093-0.274-0.3123-0.6264-0.4685-1.057-0.4685h-0.7437z" data-reactid="49"></path><path id="Shape" d="m10.491 2.5375v2.6936c0 0.3513 0.118 0.6441 0.333 0.8393s0.489 0.2928 0.822 0.2928 0.607-0.0976 0.822-0.2928 0.333-0.488 0.333-0.8393v-2.6936c0-0.2147 0.058-0.3709 0.176-0.488 0.117-0.1171 0.274-0.1757 0.45-0.1757 0.196 0 0.352 0.0781 0.47 0.1757 0.117 0.1171 0.176 0.2733 0.176 0.488v2.6936c0 0.488-0.098 0.8979-0.313 1.2687-0.215 0.3709-0.489 0.6246-0.861 0.8198s-0.783 0.2928-1.253 0.2928-0.9-0.0976-1.253-0.2928c-0.372-0.1952-0.6456-0.4684-0.8609-0.8198-0.1958-0.3513-0.3132-0.7807-0.3132-1.2492v-2.7131c0-0.2147 0.0587-0.3709 0.1761-0.488 0.1175-0.1171 0.2741-0.1757 0.4698-0.1757 0.1962 0 0.3332 0.0586 0.4502 0.1757s0.176 0.2733 0.176 0.488z" data-reactid="50"></path><path id="Shape" d="m14.699 4.6846c0-0.4295 0.059-0.8198 0.196-1.1712 0.137-0.3513 0.333-0.6636 0.568-0.9174 0.254-0.2537 0.548-0.4489 0.88-0.5855 0.333-0.1367 0.705-0.2147 1.116-0.2147 0.235 0 0.489 0.0195 0.744 0.078 0.254 0.0586 0.47 0.1367 0.646 0.2733s0.274 0.3123 0.274 0.5465c0 0.0391 0 0.0976-0.02 0.1562-0.019 0.0585-0.019 0.0781-0.019 0.0781-0.098 0.2342-0.274 0.3513-0.509 0.3708-0.078 0-0.176-0.0195-0.274-0.0585-0.118-0.0391-0.216-0.0586-0.294-0.0976-0.098-0.0391-0.176-0.0586-0.254-0.0781-0.079-0.0195-0.176-0.0391-0.255-0.0391-0.332 0-0.626 0.0976-0.861 0.2733s-0.411 0.4294-0.489 0.7417c-0.059 0.1757-0.098 0.3904-0.118 0.6637 0.02 0.4294 0.137 0.8198 0.333 1.1321 0.235 0.3318 0.607 0.5075 1.096 0.5075 0.294 0 0.548-0.0586 0.763-0.1562 0.157-0.0585 0.275-0.0976 0.372-0.0976 0.177 0 0.314 0.0586 0.411 0.1562 0.098 0.0976 0.177 0.2342 0.177 0.4099 0 0.2928-0.157 0.527-0.47 0.6636-0.431 0.1952-0.861 0.2733-1.292 0.2733-0.45 0-0.842-0.0781-1.214-0.2537-0.45-0.1952-0.822-0.5271-1.096-0.9955-0.274-0.449-0.411-0.9955-0.411-1.6591z" data-reactid="51"></path><path id="Shape" d="m19.651 6.3242l1.331-3.5915c0.216-0.6246 0.529-0.9369 0.979-0.9369 0.431 0 0.763 0.2927 0.979 0.8588l1.409 3.7281c0.078 0.2343 0.117 0.4294 0.117 0.5661 0 0.1756-0.058 0.3123-0.176 0.4099-0.117 0.0976-0.254 0.1561-0.43 0.1561-0.314 0-0.529-0.1952-0.666-0.5855l-0.157-0.5466h-2.094l-0.176 0.5466c-0.059 0.1951-0.137 0.3318-0.254 0.4294-0.098 0.0976-0.255 0.1561-0.431 0.1561-0.392 0-0.587-0.1756-0.587-0.527 0-0.1952 0.058-0.4099 0.156-0.6636zm1.644-1.1321h1.331l-0.645-2.03h-0.02l-0.666 2.03z" data-reactid="52"></path><path id="Shape" d="m27.422 7.6124l-0.216 0.2928h0.098 0.098c0.411 0.0586 0.627 0.2538 0.627 0.6051 0 0.1561-0.059 0.2928-0.157 0.3904-0.098 0.1171-0.235 0.1952-0.391 0.2537-0.157 0.0586-0.333 0.0781-0.49 0.0781-0.45 0-0.685-0.0976-0.724-0.3123 0-0.0781 0.02-0.1366 0.039-0.1952 0.039-0.0586 0.078-0.0976 0.118-0.0976 0.019 0 0.039 0 0.039-0.0195 0.039 0 0.098 0.0195 0.195 0.0585 0.098 0.0391 0.177 0.0586 0.235 0.0586 0.079 0 0.137-0.0195 0.196-0.0586 0.059-0.039 0.078-0.0975 0.078-0.1561 0-0.1171-0.019-0.1757-0.078-0.1952-0.039-0.0195-0.137-0.039-0.274-0.0586-0.137-0.0195-0.215-0.0585-0.235-0.1171 0-0.0195-0.019-0.039-0.039-0.078 0.098-0.1757 0.215-0.3514 0.333-0.5075-0.333-0.0586-0.646-0.1757-0.901-0.3514-0.274-0.1756-0.489-0.4099-0.665-0.6636-0.176-0.2538-0.313-0.5661-0.411-0.8784s-0.137-0.6441-0.137-0.9759c0-0.4295 0.059-0.8198 0.196-1.1712 0.137-0.3513 0.332-0.6636 0.567-0.9174 0.255-0.2537 0.548-0.4489 0.881-0.5855 0.333-0.1367 0.705-0.2147 1.116-0.2147 0.235 0 0.489 0.0195 0.743 0.078 0.255 0.0586 0.47 0.1367 0.646 0.2733 0.177 0.1366 0.274 0.3123 0.274 0.5465 0 0.0391 0 0.0976-0.019 0.1562-0.02 0.0585-0.02 0.0781-0.02 0.0781-0.098 0.2342-0.274 0.3513-0.509 0.3708-0.078 0-0.176-0.0195-0.274-0.0585-0.117-0.0391-0.215-0.0586-0.293-0.0976-0.098-0.0391-0.176-0.0586-0.255-0.0781-0.078-0.0195-0.176-0.0391-0.254-0.0391-0.333 0-0.627 0.0976-0.861 0.2733-0.235 0.1757-0.411 0.4294-0.49 0.7417-0.058 0.1757-0.098 0.3904-0.117 0.6637 0.019 0.4294 0.137 0.8198 0.333 1.1321 0.234 0.3318 0.606 0.5075 1.096 0.5075 0.293 0 0.548-0.0586 0.763-0.1562 0.157-0.0585 0.274-0.0976 0.372-0.0976 0.176 0 0.313 0.0586 0.411 0.1562s0.176 0.2342 0.176 0.4099c0 0.2928-0.156 0.527-0.45 0.6636-0.333 0.1952-0.803 0.2928-1.37 0.2928z" data-reactid="53"></path><path id="Shape" d="m29.751 6.3242l1.331-3.5915c0.215-0.6246 0.528-0.9369 0.979-0.9369 0.43 0 0.763 0.2927 0.978 0.8588l1.41 3.7281c0.078 0.2343 0.117 0.4294 0.117 0.5661 0 0.1756-0.059 0.3123-0.176 0.4099-0.118 0.0976-0.255 0.1561-0.431 0.1561-0.313 0-0.528-0.1952-0.665-0.5855l-0.157-0.5466h-2.075l-0.176 0.5466c-0.058 0.1951-0.137 0.3318-0.254 0.4294-0.098 0.0976-0.255 0.1561-0.431 0.1561-0.391 0-0.587-0.1756-0.587-0.527 0-0.1952 0.039-0.4099 0.137-0.6636zm1.331-6.129c0.176 0 0.352 0.01952 0.489 0.05856s0.333 0.09759 0.568 0.17567c0.235 0.07807 0.391 0.11711 0.47 0.11711 0.019-0.01952 0.039-0.01952 0.058-0.01952 0.059 0 0.118-0.01952 0.157-0.05855 0.039-0.03904 0.098-0.07808 0.157-0.13664 0.058-0.05855 0.117-0.09759 0.156-0.11711s0.098-0.03904 0.157-0.03904c0.137 0 0.235 0.05856 0.313 0.15615 0.078 0.0976 0.117 0.21471 0.117 0.35135 0 0.19519-0.058 0.37083-0.195 0.52703-0.137 0.1561-0.294 0.2732-0.47 0.3123-0.196 0-0.352-0.0195-0.509-0.0586-0.157-0.039-0.333-0.0976-0.548-0.1756-0.215-0.0781-0.352-0.1172-0.431-0.1172-0.078 0-0.137 0.0196-0.195 0.0391-0.059 0.039-0.098 0.0781-0.157 0.1366-0.059 0.0586-0.117 0.0976-0.157 0.1366-0.039 0.0391-0.117 0.0586-0.195 0.0586-0.118 0-0.235-0.039-0.314-0.1366-0.078-0.0781-0.137-0.1952-0.137-0.3319 0-0.19514 0.059-0.37081 0.177-0.54649 0.117-0.17567 0.293-0.29278 0.489-0.33182zm0.333 4.9969h1.331l-0.646-2.03h-0.02l-0.665 2.03z" data-reactid="54"></path><path id="Shape" d="m37.658 1.7958c0.412 0 0.783 0.0585 1.116 0.1951 0.333 0.1367 0.626 0.3319 0.861 0.5856 0.235 0.2538 0.431 0.5661 0.548 0.9174 0.137 0.3513 0.196 0.7612 0.196 1.2102 0 0.4294-0.059 0.8198-0.196 1.1906-0.137 0.3514-0.313 0.6637-0.548 0.9174-0.235 0.2538-0.528 0.449-0.861 0.5856s-0.704 0.1952-1.116 0.1952c-0.411 0-0.782-0.0586-1.115-0.1952s-0.627-0.3318-0.881-0.5856c-0.235-0.2537-0.431-0.566-0.548-0.9174-0.137-0.3513-0.196-0.7417-0.196-1.1711s0.059-0.8393 0.196-1.1907c0.137-0.3708 0.313-0.6636 0.548-0.9369 0.235-0.2537 0.529-0.4489 0.861-0.5855 0.333-0.1367 0.705-0.2147 1.135-0.2147zm-0.019 1.1711c-0.313 0-0.568 0.0781-0.783 0.2342-0.215 0.1562-0.352 0.3709-0.45 0.6441-0.098 0.2733-0.137 0.5466-0.137 0.8589 0 0.488 0.117 0.8783 0.352 1.2102 0.235 0.3318 0.568 0.5075 1.037 0.5075 0.314 0 0.568-0.0781 0.783-0.2343 0.216-0.1561 0.353-0.3708 0.451-0.6246 0.097-0.2537 0.137-0.5465 0.137-0.8393 0-0.3123-0.04-0.6051-0.137-0.8588-0.098-0.2733-0.255-0.4685-0.451-0.6442-0.215-0.1756-0.489-0.2537-0.802-0.2537z" data-reactid="55"></path></g></g></g></g></g></g></g></g></svg>