<?xml version="1.0" encoding="utf-8"?>
<!-- Generator: Adobe Illustrator 17.0.1, SVG Export Plug-In . SVG Version: 6.00 Build 0)  -->
<!DOCTYPE svg PUBLIC "-//W3C//DTD SVG 1.1//EN" "http://www.w3.org/Graphics/SVG/1.1/DTD/svg11.dtd">
<svg version="1.1" id="Camada_1" xmlns="http://www.w3.org/2000/svg" xmlns:xlink="http://www.w3.org/1999/xlink" x="0px" y="0px"
	 width="210px" height="114px" viewBox="0 0 210 114" enable-background="new 0 0 210 114" xml:space="preserve">
<g>
	<linearGradient id="SVGID_1_" gradientUnits="userSpaceOnUse" x1="0" y1="57" x2="210" y2="57">
		<stop  offset="0" style="stop-color:#033826"/>
		<stop  offset="0.5" style="stop-color:#005D46"/>
		<stop  offset="1" style="stop-color:#033826"/>
	</linearGradient>
	<path fill="url(#SVGID_1_)" d="M104.997,114.04c-2.347,0-4.601-0.507-6.709-1.498L9.224,71.34C3.625,68.793,0,63.161,0,57.002
		c0-6.161,3.627-11.792,9.238-14.345l89.068-41.21c2.091-0.986,4.345-1.487,6.692-1.487c2.343,0,4.597,0.501,6.704,1.492
		l89.073,41.214c5.599,2.542,9.225,8.173,9.225,14.337c0,6.151-3.623,11.779-9.222,14.338l-89.09,41.211
		C109.592,113.538,107.338,114.04,104.997,114.04z"/>
	<g>
		<path fill="#8FABA3" d="M9.025,57.002c0-2.588,1.646-4.956,4.021-6.039l86.519-34.022c0.553-0.218,0.553-0.57,0-0.787l-9.254-3.64
			c-0.553-0.217-1.441-0.191-1.981,0.059L11.69,48.031c-3.507,1.6-5.773,5.123-5.773,8.971c0,3.849,2.269,7.369,5.779,8.969
			l76.618,35.441c0.539,0.251,1.426,0.276,1.98,0.06l9.267-3.645c0.553-0.216,0.553-0.569,0-0.789L13.036,63.034
			C10.674,61.956,9.025,59.589,9.025,57.002z"/>
		<path fill="#FFFFFF" d="M109.189,6.802c-1.319-0.618-2.728-0.931-4.192-0.931c-1.469,0-2.883,0.317-4.203,0.937l-6.44,2.979
			c-0.539,0.25-0.528,0.63,0.026,0.846l102.582,40.335c2.367,1.077,4.017,3.446,4.017,6.033c0,2.583-1.644,4.951-4.016,6.032
			l-71.589,28.138c-0.554,0.217-0.999,0.399-0.996,0.411c0.006,0.009-0.441,0.193-0.993,0.409l-29.012,11.367
			c-0.556,0.217-0.567,0.596-0.027,0.844l6.457,2.987c1.325,0.623,2.733,0.938,4.193,0.938c1.47,0,2.881-0.319,4.203-0.938
			l89.12-41.224c3.506-1.6,5.765-5.117,5.765-8.964c0-3.853-2.27-7.374-5.786-8.973L109.189,6.802z"/>
	</g>
	<g>
		<path fill="#FFFFFF" d="M146.588,43.542c-6.84,0-12.386,5.286-12.386,11.807c0,6.521,5.547,11.805,12.386,11.805
			c6.84,0,12.386-5.284,12.386-11.805C158.974,48.827,153.428,43.542,146.588,43.542z M146.588,62.767
			c-3.923,0-7.102-3.32-7.102-7.419c0-4.1,3.179-7.419,7.102-7.419c3.924,0,7.102,3.319,7.102,7.419
			C153.69,59.448,150.511,62.767,146.588,62.767z"/>
		<path fill="#FFFFFF" d="M107.82,43.934H94.668c-1.234,0-2.233,1.002-2.233,2.239c0,1.235,0.999,2.234,2.233,2.234h3.992v15.809
			c0,1.424,1.158,2.583,2.583,2.583c1.426,0,2.586-1.159,2.586-2.583V48.407h3.99c1.24,0,2.233-0.999,2.233-2.234
			C110.054,44.937,109.06,43.934,107.82,43.934z"/>
		<path fill="#FFFFFF" d="M129.275,43.781c-1.424,0-2.583,1.159-2.583,2.585v6.534h-9.598v-6.534c0-1.427-1.156-2.585-2.585-2.585
			c-1.423,0-2.581,1.159-2.581,2.585v17.85c0,1.424,1.158,2.583,2.581,2.583c1.429,0,2.585-1.159,2.585-2.583v-6.929h9.598v6.929
			c0,1.424,1.159,2.583,2.583,2.583c1.43,0,2.585-1.159,2.585-2.583v-17.85C131.86,44.94,130.705,43.781,129.275,43.781z"/>
		<path fill="#FFFFFF" d="M68.62,61.15c-0.496,0-0.952,0.156-1.329,0.418c-1.113,0.764-2.445,1.206-3.875,1.206
			c-3.925,0-7.105-3.321-7.105-7.419c0-4.1,3.18-7.422,7.105-7.422c1.405,0,2.712,0.43,3.813,1.166
			c0.393,0.293,0.871,0.466,1.391,0.466c1.286,0,2.327-1.042,2.327-2.326c0-0.902-0.516-1.682-1.267-2.068
			c-1.841-1.029-3.979-1.622-6.264-1.622c-6.839,0-12.387,5.283-12.387,11.805s5.548,11.807,12.387,11.807
			c2.247,0,4.353-0.577,6.173-1.577c0.799-0.362,1.358-1.173,1.358-2.112C70.946,62.191,69.905,61.15,68.62,61.15z"/>
		<path fill="#FFFFFF" d="M94.383,63.443l-8.38-18.176c-0.44-0.932-1.394-1.455-2.362-1.394c-0.97-0.061-1.923,0.462-2.361,1.394
			l-8.38,18.176c-0.571,1.216-0.051,2.667,1.167,3.24c1.218,0.569,2.668,0.04,3.24-1.174l1.091-2.368h10.484l1.093,2.368
			c0.572,1.214,2.022,1.743,3.24,1.174C94.432,66.11,94.956,64.659,94.383,63.443z M80.31,59.001l3.331-7.226l3.332,7.226H80.31z"/>
	</g>
	<g>
		<path fill="#FFFFFF" d="M76.26,77.407v-6.205c0-0.377,0.292-0.668,0.668-0.668h4.385c0.323,0,0.591,0.269,0.591,0.593
			c0,0.333-0.269,0.591-0.591,0.591h-3.727v1.959h3.243c0.322,0,0.591,0.27,0.591,0.604c0,0.322-0.269,0.584-0.591,0.584h-3.243
			v2.021h3.782c0.322,0,0.592,0.27,0.592,0.593c0,0.336-0.271,0.592-0.592,0.592h-4.439C76.552,78.073,76.26,77.782,76.26,77.407z"
			/>
		<path fill="#FFFFFF" d="M83.189,71.16c0-0.368,0.289-0.669,0.668-0.669h0.138c0.29,0,0.484,0.152,0.614,0.356l2.284,3.577
			l2.294-3.589c0.141-0.226,0.335-0.344,0.604-0.344h0.141c0.377,0,0.668,0.301,0.668,0.669v6.31c0,0.367-0.291,0.658-0.668,0.658
			c-0.357,0-0.66-0.302-0.66-0.658v-4.524l-1.84,2.769c-0.139,0.215-0.314,0.344-0.56,0.344c-0.237,0-0.41-0.129-0.551-0.344
			l-1.831-2.747v4.513c0,0.368-0.29,0.647-0.657,0.647c-0.366,0-0.645-0.279-0.645-0.647V71.16z"/>
		<path fill="#FFFFFF" d="M92.353,71.202c0-0.377,0.291-0.668,0.667-0.668h2.304c1.768,0,2.866,1.002,2.866,2.519v0.023
			c0,1.691-1.359,2.574-3.017,2.574h-1.497v1.819c0,0.367-0.291,0.658-0.657,0.658c-0.376,0-0.667-0.291-0.667-0.658V71.202z
			 M95.217,74.453c1,0,1.627-0.559,1.627-1.345v-0.021c0-0.882-0.635-1.348-1.627-1.348h-1.54v2.713H95.217z"/>
		<path fill="#FFFFFF" d="M99.257,71.202c0-0.377,0.29-0.668,0.668-0.668h2.693c0.948,0,1.692,0.279,2.176,0.755
			c0.399,0.408,0.625,0.969,0.625,1.627v0.021c0,1.205-0.701,1.94-1.713,2.251l1.445,1.819c0.128,0.163,0.216,0.304,0.216,0.507
			c0,0.367-0.315,0.614-0.637,0.614c-0.301,0-0.497-0.139-0.647-0.346l-1.832-2.336h-1.668v2.024c0,0.367-0.291,0.658-0.658,0.658
			c-0.378,0-0.668-0.291-0.668-0.658V71.202z M102.522,74.272c0.948,0,1.551-0.496,1.551-1.261v-0.022
			c0-0.807-0.583-1.25-1.562-1.25h-1.929v2.532H102.522z"/>
		<path fill="#FFFFFF" d="M106.84,77.407v-6.205c0-0.377,0.29-0.668,0.666-0.668h4.385c0.321,0,0.59,0.269,0.59,0.593
			c0,0.333-0.269,0.591-0.59,0.591h-3.727v1.959h3.242c0.323,0,0.593,0.27,0.593,0.604c0,0.322-0.27,0.584-0.593,0.584h-3.242v2.021
			h3.78c0.324,0,0.594,0.27,0.594,0.593c0,0.336-0.27,0.592-0.594,0.592h-4.438C107.129,78.073,106.84,77.782,106.84,77.407z"/>
		<path fill="#FFFFFF" d="M113.591,77.234c-0.151-0.108-0.258-0.291-0.258-0.508c0-0.344,0.28-0.613,0.624-0.613
			c0.183,0,0.303,0.053,0.388,0.117c0.625,0.496,1.294,0.777,2.113,0.777c0.819,0,1.333-0.387,1.333-0.948v-0.021
			c0-0.539-0.3-0.829-1.701-1.154c-1.605-0.385-2.512-0.859-2.512-2.25v-0.021c0-1.293,1.08-2.187,2.577-2.187
			c0.95,0,1.713,0.248,2.391,0.702c0.151,0.086,0.291,0.269,0.291,0.527c0,0.344-0.279,0.614-0.624,0.614
			c-0.13,0-0.238-0.033-0.345-0.098c-0.58-0.376-1.141-0.57-1.734-0.57c-0.777,0-1.227,0.397-1.227,0.894v0.021
			c0,0.581,0.343,0.84,1.799,1.184c1.593,0.39,2.413,0.958,2.413,2.209v0.021c0,1.412-1.113,2.252-2.695,2.252
			C115.4,78.182,114.432,77.857,113.591,77.234z"/>
		<path fill="#FFFFFF" d="M119.879,77.212l2.8-6.246c0.151-0.335,0.42-0.54,0.796-0.54h0.064c0.378,0,0.636,0.205,0.788,0.54
			l2.802,6.246c0.052,0.099,0.075,0.195,0.075,0.279c0,0.357-0.271,0.636-0.626,0.636c-0.314,0-0.527-0.183-0.646-0.463l-0.615-1.41
			h-3.661l-0.636,1.453c-0.108,0.272-0.335,0.421-0.615,0.421c-0.346,0-0.613-0.27-0.613-0.614
			C119.793,77.417,119.826,77.32,119.879,77.212z M124.812,75.078l-1.325-3.046l-1.325,3.046H124.812z"/>
		<path fill="#FFFFFF" d="M128.215,77.234c-0.151-0.108-0.258-0.291-0.258-0.508c0-0.344,0.28-0.613,0.625-0.613
			c0.181,0,0.303,0.053,0.388,0.117c0.624,0.496,1.291,0.777,2.11,0.777c0.819,0,1.337-0.387,1.337-0.948v-0.021
			c0-0.539-0.304-0.829-1.703-1.154c-1.605-0.385-2.51-0.859-2.51-2.25v-0.021c0-1.293,1.078-2.187,2.573-2.187
			c0.95,0,1.714,0.248,2.392,0.702c0.152,0.086,0.291,0.269,0.291,0.527c0,0.344-0.281,0.614-0.624,0.614
			c-0.13,0-0.239-0.033-0.345-0.098c-0.582-0.376-1.143-0.57-1.735-0.57c-0.775,0-1.227,0.397-1.227,0.894v0.021
			c0,0.581,0.343,0.84,1.797,1.184c1.595,0.39,2.413,0.958,2.413,2.209v0.021c0,1.412-1.109,2.252-2.695,2.252
			C130.024,78.182,129.056,77.857,128.215,77.234z"/>
	</g>
</g>
</svg>
