<svg xmlns="http://www.w3.org/2000/svg" viewBox="0 0 213 114.75"><linearGradient id="a" gradientUnits="userSpaceOnUse" x1="2.643" y1="57.323" x2="211.364" y2="57.323"><stop offset="0" stop-color="#00468c"/><stop offset=".5" stop-color="#005da4"/><stop offset="1" stop-color="#00468c"/></linearGradient><path fill="url(#a)" d="M106.998 114.016a15.52 15.52 0 0 1-6.667-1.487L11.81 71.578c-5.564-2.531-9.167-8.131-9.167-14.251a15.695 15.695 0 0 1 9.181-14.255L100.348 2.11a15.485 15.485 0 0 1 6.65-1.48c2.328 0 4.567.502 6.662 1.482l88.534 40.963c5.564 2.528 9.17 8.127 9.17 14.252 0 6.113-3.603 11.706-9.168 14.251l-88.549 40.964a15.514 15.514 0 0 1-6.649 1.474z"/><path fill="#FFF" d="M11.613 57.327c0-2.571 1.64-4.921 3.994-5.993.004-.003 82.021-32.269 99.624-39.194a1.518 1.518 0 0 0 .082-2.788l-5.143-2.38a7.588 7.588 0 0 0-6.375.002L14.273 48.412a9.823 9.823 0 0 0-5.749 8.915 9.813 9.813 0 0 0 5.732 8.909c.966.448 73.333 33.919 89.541 41.423a7.591 7.591 0 0 0 6.375.003l5.148-2.382a1.516 1.516 0 0 0-.083-2.788C70.386 84.871 32.045 69.786 15.602 63.323c-2.354-1.075-3.989-3.426-3.989-5.996z"/><path fill="#4D8EC6" d="M199.744 48.414c-1.459-.674-60.262-27.882-74.264-34.359a7.586 7.586 0 0 0-5.96-.176l-4.587 1.803a1.518 1.518 0 0 0 0 2.824l83.464 32.818c2.362 1.081 3.999 3.432 3.999 6.002 0 2.572-1.637 4.925-3.986 5.997l-83.518 32.814a1.517 1.517 0 0 0-.001 2.824c2.069.815 3.485 1.371 4.603 1.81a7.587 7.587 0 0 0 5.955-.177l74.295-34.35a9.833 9.833 0 0 0 5.743-8.918 9.815 9.815 0 0 0-5.743-8.912z"/><g fill="#FFF"><path d="M154.209 43.918c-7.764 0-14.06 5.998-14.06 13.401 0 7.401 6.297 13.401 14.06 13.401 7.765 0 14.058-6 14.058-13.401.001-7.403-6.293-13.401-14.058-13.401zm0 21.822c-4.452 0-8.063-3.77-8.063-8.421 0-4.655 3.61-8.422 8.063-8.422 4.453 0 8.062 3.767 8.062 8.422 0 4.651-3.609 8.421-8.062 8.421zM110.203 44.361H95.276a2.54 2.54 0 0 0 0 5.078h4.531v17.946a2.935 2.935 0 0 0 5.868 0V49.439h4.529a2.53 2.53 0 0 0 2.535-2.536 2.537 2.537 0 0 0-2.536-2.542zM134.558 44.188a2.94 2.94 0 0 0-2.935 2.937v7.416H120.73v-7.416a2.937 2.937 0 0 0-2.935-2.937 2.936 2.936 0 0 0-2.93 2.937v20.261a2.933 2.933 0 0 0 5.865 0V59.52h10.893v7.865a2.935 2.935 0 0 0 5.869 0V47.124a2.935 2.935 0 0 0-2.934-2.936zM65.706 63.904c-.562 0-1.081.178-1.509.475a7.742 7.742 0 0 1-4.399 1.368c-4.453 0-8.064-3.771-8.064-8.422 0-4.652 3.611-8.424 8.064-8.424 1.596 0 3.079.488 4.329 1.322.444.335.987.532 1.579.532a2.638 2.638 0 1 0 1.203-4.989 14.529 14.529 0 0 0-7.11-1.842c-7.764 0-14.06 5.997-14.06 13.399s6.296 13.403 14.06 13.403c2.553 0 4.941-.655 7.007-1.789a2.637 2.637 0 0 0 1.543-2.398 2.64 2.64 0 0 0-2.643-2.635zM94.952 66.507L85.44 45.875a2.773 2.773 0 0 0-2.684-1.582 2.764 2.764 0 0 0-2.681 1.582l-9.513 20.632a2.764 2.764 0 0 0 1.326 3.677 2.769 2.769 0 0 0 3.677-1.332l1.24-2.688h11.899l1.242 2.688a2.765 2.765 0 0 0 5.006-2.345zm-15.975-5.044l3.779-8.2 3.781 8.2h-7.56z"/></g></svg>