<svg class="_3XLabinph_" viewBox="0 0 108 59" xmlns="http://www.w3.org/2000/svg" data-reactid="20"><defs data-reactid="21"><linearGradient id="a" y1="50%" x1="0%" y2="50%" data-reactid="22"><stop stop-color="#88C425" offset="0" data-reactid="23"/><stop stop-color="#88C425" offset=".5" data-reactid="24"/><stop stop-color="#88C425" offset="1" data-reactid="25"/></linearGradient></defs><g fill-rule="evenodd" fill="none" data-reactid="26"><g data-reactid="28"><g data-reactid="29"><g data-reactid="30"><g data-reactid="31"><g data-reactid="32"><g data-reactid="33" fill-rule="nonzero"><g data-reactid="34"><g data-reactid="35"><g data-reactid="36"><g data-reactid="37"><path fill="url(#a)" d="M53.826 58.381a7.966 7.966 0 0 1-3.425-.761L4.835 36.598C1.977 35.29.117 32.421.117 29.279c0-3.143 1.86-6.012 4.718-7.32L50.4.937c1.076-.508 2.231-.761 3.425-.761s2.35.253 3.426.76L102.82 21.96c2.85 1.288 4.71 4.177 4.71 7.32 0 3.142-1.86 6.01-4.71 7.319L57.25 57.62a7.966 7.966 0 0 1-3.424.76z" data-reactid="38" transform="translate(0 -.194)"/><path fill="#fff" d="M4.737 28.538c0-1.327.841-2.518 2.055-3.084 0 0 42.219-16.552 51.262-20.124.293-.117.489-.39.489-.703s-.176-.605-.45-.722l-2.643-1.23a3.875 3.875 0 0 0-3.288 0C43.785 6.54 6.087 23.932 6.087 23.951a5.038 5.038 0 0 0-2.956 4.567 5.017 5.017 0 0 0 2.956 4.568c.49.234 37.737 17.411 46.075 21.256a3.875 3.875 0 0 0 3.288 0l2.643-1.23c.274-.136.469-.409.45-.722a.76.76 0 0 0-.489-.702C34.977 42.65 15.247 34.901 6.772 31.583c-1.194-.527-2.035-1.737-2.035-3.045z" data-reactid="39"/><path fill="#9FD634" d="M101.54 23.951C100.8 23.6 70.541 9.644 63.319 6.325a3.91 3.91 0 0 0-3.073-.097c-.724.292-1.605.624-2.369.917-.293.117-.489.41-.489.722s.196.605.489.723c8.436 3.318 42.923 16.825 42.963 16.844 1.21.547 2.06 1.757 2.06 3.084 0 1.328-.85 2.518-2.06 3.084-4.56 1.796-34.331 13.449-42.982 16.845a.786.786 0 0 0-.489.723c0 .312.195.605.489.722 1.057.41 1.801.703 2.368.937.998.39 2.094.35 3.073-.098l38.231-17.626a5.032 5.032 0 0 0 2.95-4.567 4.982 4.982 0 0 0-2.94-4.587z" data-reactid="40"/></g></g></g></g><g fill="#fff" data-reactid="41"><path d="M75.024 19.345c-3.484 0-6.323 2.693-6.323 5.992 0 3.318 2.819 5.992 6.323 5.992 3.484 0 6.322-2.693 6.322-5.992-.02-3.299-2.838-5.992-6.322-5.992zm0 9.779c-1.997 0-3.621-1.68-3.621-3.768s1.624-3.767 3.621-3.767c1.996 0 3.621 1.679 3.621 3.767 0 2.089-1.625 3.768-3.621 3.768z" data-reactid="42"/><path d="M55.255 19.56h-6.694c-.627 0-1.135.507-1.135 1.131 0 .625.508 1.132 1.135 1.132h2.035v8.042a1.31 1.31 0 0 0 2.623 0v-8.042h2.036c.626 0 1.135-.507 1.135-1.132.02-.624-.489-1.132-1.135-1.132z" data-reactid="43"/><path d="M66.196 19.481a1.31 1.31 0 0 0-1.311 1.308v3.318h-4.894V20.79a1.31 1.31 0 0 0-1.311-1.308 1.31 1.31 0 0 0-1.311 1.308v9.076c0 .722.587 1.308 1.311 1.308s1.311-.586 1.311-1.308v-3.513h4.894v3.513a1.31 1.31 0 1 0 2.623 0v-9.076a1.31 1.31 0 0 0-1.312-1.308z" data-reactid="44"/><path d="M35.29 28.304c-.254 0-.489.078-.685.215a3.478 3.478 0 0 1-1.977.605c-1.996 0-3.62-1.68-3.62-3.768s1.624-3.767 3.62-3.767c.725 0 1.39.215 1.938.586.196.156.45.234.705.234.646 0 1.194-.527 1.194-1.19a1.18 1.18 0 0 0-.646-1.055 6.517 6.517 0 0 0-3.19-.82c-3.485 0-6.323 2.694-6.323 5.993 0 3.299 2.819 5.992 6.322 5.992a6.572 6.572 0 0 0 3.152-.8c.41-.176.685-.605.685-1.074 0-.624-.529-1.151-1.175-1.151z" data-reactid="45"/><path d="M48.424 29.475l-4.267-9.233a1.228 1.228 0 0 0-1.214-.702 1.219 1.219 0 0 0-1.194.702l-4.286 9.233a1.23 1.23 0 0 0 2.231 1.034l.548-1.21h5.363l.548 1.21a1.253 1.253 0 0 0 1.644.605 1.239 1.239 0 0 0 .627-1.639zm-7.183-2.264l1.702-3.67 1.703 3.67h-3.405z" data-reactid="46"/></g><g fill="#fff" data-reactid="47"><path d="M33.686 36.366v-1.601c0-.215.058-.37.195-.469a.674.674 0 0 1 .411-.156h1.997c.176 0 .333.059.43.156s.157.254.157.43c0 .156-.04.293-.137.41-.098.117-.254.156-.45.156h-1.35v1.015h1.252a.59.59 0 0 1 .45.176.629.629 0 0 1 .157.41.629.629 0 0 1-.157.41.576.576 0 0 1-.43.175h-1.253v1.035h1.35c.216 0 .392.058.49.156a.58.58 0 0 1 .156.39.607.607 0 0 1-.156.43c-.098.117-.274.175-.49.175h-1.957c-.215 0-.372-.058-.49-.175s-.175-.274-.175-.45v-2.673z" data-reactid="48"/><path d="M37.502 34.785a.71.71 0 0 1 .157-.469.616.616 0 0 1 .47-.195h1.487c.568 0 1.038.117 1.39.351s.626.508.841.82c.274.449.431.996.431 1.62 0 .351-.059.703-.176 1.035a2.79 2.79 0 0 1-.528.898 2.78 2.78 0 0 1-.803.624 2.313 2.313 0 0 1-1.037.234h-1.566a.636.636 0 0 1-.47-.175.632.632 0 0 1-.176-.469v-4.274h-.02zm1.273.507v3.22h.724c.41 0 .763-.156 1.037-.448.118-.117.196-.293.255-.508s.097-.449.097-.703c0-.487-.097-.858-.313-1.093a1.342 1.342 0 0 0-1.057-.468h-.743z" data-reactid="49"/><path d="M44.157 34.745v2.694c0 .351.118.644.333.84s.489.292.822.292.607-.097.822-.293.333-.488.333-.839v-2.694c0-.214.058-.37.176-.488a.62.62 0 0 1 .45-.175c.196 0 .352.078.47.175.117.118.176.274.176.488v2.694c0 .488-.098.898-.313 1.269-.215.37-.489.624-.861.82s-.783.292-1.253.292-.9-.097-1.253-.292a2.171 2.171 0 0 1-.86-.82 2.568 2.568 0 0 1-.314-1.25v-2.713c0-.214.059-.37.176-.487a.636.636 0 0 1 .47-.176c.196 0 .333.058.45.176s.176.273.176.487z" data-reactid="50"/><path d="M48.365 36.893c0-.43.059-.82.196-1.172.137-.35.333-.663.568-.917.254-.254.548-.449.88-.586a2.915 2.915 0 0 1 1.116-.214c.235 0 .489.02.744.078.254.058.47.137.646.273s.274.312.274.547c0 .039 0 .097-.02.156-.019.058-.019.078-.019.078a.568.568 0 0 1-.509.37.773.773 0 0 1-.274-.058c-.118-.039-.216-.058-.294-.097-.098-.04-.176-.059-.254-.078a1.154 1.154 0 0 0-.255-.04c-.332 0-.626.098-.861.274s-.411.43-.489.741c-.059.176-.098.39-.118.664.02.43.137.82.333 1.132.235.332.607.508 1.096.508.294 0 .548-.059.763-.156.157-.059.275-.098.372-.098a.57.57 0 0 1 .588.566c0 .293-.157.527-.47.664a3.078 3.078 0 0 1-1.292.273c-.45 0-.842-.078-1.214-.254a2.338 2.338 0 0 1-1.096-.995c-.274-.45-.411-.996-.411-1.66z" data-reactid="51"/><path d="M53.317 38.532l1.331-3.591c.216-.625.529-.937.979-.937.431 0 .763.292.979.859l1.409 3.728c.078.234.117.43.117.566a.502.502 0 0 1-.176.41.644.644 0 0 1-.43.156c-.314 0-.529-.195-.666-.586l-.157-.546h-2.094l-.176.546c-.059.195-.137.332-.254.43a.612.612 0 0 1-.431.156c-.392 0-.587-.176-.587-.527 0-.195.058-.41.156-.664zm1.644-1.132h1.331l-.645-2.03h-.02l-.666 2.03z" data-reactid="52"/><path d="M61.088 39.82l-.216.293h.196c.411.059.627.254.627.605a.544.544 0 0 1-.157.39.912.912 0 0 1-.391.254 1.429 1.429 0 0 1-.49.078c-.45 0-.685-.097-.724-.312 0-.078.02-.136.039-.195.039-.059.078-.098.118-.098.019 0 .039 0 .039-.02.039 0 .098.02.195.06.098.039.177.058.235.058a.33.33 0 0 0 .196-.059.176.176 0 0 0 .078-.156c0-.117-.019-.175-.078-.195a1.203 1.203 0 0 0-.274-.059c-.137-.019-.215-.058-.235-.117 0-.02-.019-.039-.039-.078.098-.175.215-.351.333-.507a2.293 2.293 0 0 1-.901-.352 2.386 2.386 0 0 1-.665-.663 3.302 3.302 0 0 1-.548-1.854c0-.43.059-.82.196-1.172.137-.35.332-.663.567-.917.255-.254.548-.449.881-.586a2.915 2.915 0 0 1 1.116-.214c.235 0 .489.02.743.078.255.058.47.136.646.273a.655.655 0 0 1 .274.547c0 .039 0 .097-.019.156-.02.058-.02.078-.02.078a.568.568 0 0 1-.509.37.773.773 0 0 1-.274-.058c-.117-.039-.215-.058-.293-.097a1.794 1.794 0 0 0-.255-.079 1.146 1.146 0 0 0-.254-.039c-.333 0-.627.098-.861.274a1.32 1.32 0 0 0-.49.741c-.058.176-.098.39-.117.664.019.43.137.82.333 1.132.234.332.606.508 1.096.508.293 0 .548-.059.763-.157.157-.058.274-.097.372-.097.176 0 .313.058.411.156s.176.234.176.41c0 .293-.156.527-.45.664-.333.195-.803.292-1.37.292z" data-reactid="53"/><path d="M63.417 38.532l1.331-3.591c.215-.625.528-.937.979-.937.43 0 .763.292.978.859l1.41 3.728c.078.234.117.43.117.566a.505.505 0 0 1-.176.41.648.648 0 0 1-.431.156c-.313 0-.528-.195-.665-.586l-.157-.546h-2.075l-.176.546c-.058.195-.137.332-.254.43a.612.612 0 0 1-.431.156c-.391 0-.587-.176-.587-.527 0-.195.039-.41.137-.664zm1.331-6.129c.176 0 .352.02.489.059s.333.097.568.175c.235.078.391.118.47.118.019-.02.039-.02.058-.02.059 0 .118-.02.157-.059.039-.039.098-.078.157-.136.058-.059.117-.098.156-.117s.098-.04.157-.04a.38.38 0 0 1 .313.157.545.545 0 0 1 .117.351c0 .195-.058.371-.195.527-.137.156-.294.273-.47.313-.196 0-.352-.02-.509-.06a5.638 5.638 0 0 1-.548-.175c-.215-.078-.352-.117-.431-.117a.574.574 0 0 0-.195.04c-.059.038-.098.077-.157.136-.059.058-.117.097-.157.136-.039.04-.117.059-.195.059a.392.392 0 0 1-.314-.137.472.472 0 0 1-.137-.331c0-.196.059-.371.177-.547a.769.769 0 0 1 .489-.332zm.333 4.997h1.331l-.646-2.03h-.02l-.665 2.03z" data-reactid="54"/><path d="M71.324 34.004c.412 0 .783.058 1.116.195.333.137.626.332.861.585.235.254.431.567.548.918.137.351.196.761.196 1.21 0 .43-.059.82-.196 1.19a2.86 2.86 0 0 1-.548.918c-.235.254-.528.45-.861.586s-.704.195-1.116.195c-.411 0-.782-.059-1.115-.195s-.627-.332-.881-.586a2.542 2.542 0 0 1-.548-.917 3.2 3.2 0 0 1-.196-1.171c0-.43.059-.84.196-1.191.137-.37.313-.664.548-.937.235-.254.529-.449.861-.586a2.942 2.942 0 0 1 1.135-.214zm-.019 1.17c-.313 0-.568.079-.783.235-.215.156-.352.371-.45.644a2.468 2.468 0 0 0-.137.86c0 .487.117.877.352 1.21.235.331.568.507 1.037.507.314 0 .568-.078.783-.234.216-.157.353-.371.451-.625a2.38 2.38 0 0 0 .137-.84c0-.312-.04-.604-.137-.858a1.538 1.538 0 0 0-.451-.644c-.215-.176-.489-.254-.802-.254z" data-reactid="55"/></g></g></g></g></g></g></g></g></svg>