<?xml version="1.0" encoding="iso-8859-1"?>
<!-- Generator: Adobe Illustrator 19.0.0, SVG Export Plug-In . SVG Version: 6.00 Build 0)  -->
<svg version="1.1" id="Layer_1" xmlns="http://www.w3.org/2000/svg" xmlns:xlink="http://www.w3.org/1999/xlink" x="0px" y="0px"
	 viewBox="0 0 503.467 503.467" style="enable-background:new 0 0 503.467 503.467;" xml:space="preserve">
<path style="fill:#57B1E3;" d="M390.827,68.267C390.827,68.267,389.973,68.267,390.827,68.267c-0.853,0-1.707,0-2.56,0H373.76
	c-5.12,0-8.533-3.413-8.533-8.533s3.413-8.533,8.533-8.533h14.507c0.853,0,1.707,0,3.413,0c5.12,0,8.533,4.267,7.68,9.387
	C399.36,64.853,395.093,68.267,390.827,68.267L390.827,68.267z M108.373,69.12c-4.267,0-7.68-2.56-8.533-6.827
	s1.707-9.387,5.973-10.24c3.413,0,5.973-0.853,9.387-0.853h9.387c5.12,0,8.533,3.413,8.533,8.533s-3.413,8.533-8.533,8.533H115.2
	c-1.707,0-3.413,0-5.12,0.853C109.227,69.12,108.373,69.12,108.373,69.12L108.373,69.12z M166.4,78.507
	c-5.12,0-8.533-3.413-8.533-8.533v-1.707c-4.267-0.853-6.827-4.267-6.827-8.533c0-5.12,3.413-8.533,8.533-8.533h6.827
	c5.12,0,8.533,3.413,8.533,8.533v10.24C174.933,74.24,171.52,78.507,166.4,78.507L166.4,78.507z M337.067,85.333
	c-5.12,0-8.533-3.413-8.533-8.533V59.733c0-5.12,3.413-8.533,8.533-8.533h2.56c5.12,0,8.533,3.413,8.533,8.533
	c0,2.56-0.853,4.267-2.56,5.973V76.8C345.6,81.92,342.187,85.333,337.067,85.333L337.067,85.333z M422.4,102.4
	c-5.12,0-8.533-3.413-8.533-8.533l0,0c0-4.267-0.853-8.533-3.413-11.947c-2.56-4.267-0.853-9.387,3.413-11.947
	s9.387-0.853,11.947,3.413c3.413,6.827,5.12,13.653,5.12,20.48C430.933,98.987,427.52,102.4,422.4,102.4L422.4,102.4z
	 M81.067,107.52c-5.12,0-8.533-3.413-8.533-8.533v-5.12c0-5.12,0.853-10.24,2.56-15.36c1.707-4.267,6.827-6.827,11.093-5.12
	c4.267,2.56,6.827,6.827,5.12,11.947c-0.853,2.56-1.707,5.973-1.707,8.533v5.12C89.6,103.253,86.187,107.52,81.067,107.52
	L81.067,107.52z M316.587,119.467c-5.12,0-8.533-3.413-8.533-8.533s3.413-8.533,8.533-8.533h11.947
	c4.267-2.56,9.387-1.707,11.947,2.56s1.707,9.387-2.56,11.947c-2.56,1.707-5.973,2.56-9.387,2.56H316.587L316.587,119.467z
	 M265.387,119.467c-5.12,0-8.533-3.413-8.533-8.533s3.413-8.533,8.533-8.533h17.067l0,0c5.12,0,8.533,3.413,8.533,8.533
	s-3.413,8.533-8.533,8.533H265.387L265.387,119.467z M214.187,119.467c-5.12,0-8.533-3.413-8.533-8.533s3.413-8.533,8.533-8.533
	h17.067l0,0c5.12,0,8.533,3.413,8.533,8.533s-3.413,8.533-8.533,8.533H214.187L214.187,119.467z M174.933,119.467
	c-8.533,0-15.36-5.973-17.067-14.507c-0.853-4.267,2.56-9.387,6.827-9.387c4.267-0.853,9.387,2.56,9.387,6.827h5.12l0,0
	c5.12,0,8.533,3.413,8.533,8.533s-3.413,8.533-8.533,8.533H174.933z M422.4,153.6c-5.12,0-8.533-3.413-8.533-8.533V128
	c0-5.12,3.413-8.533,8.533-8.533s8.533,3.413,8.533,8.533v17.067C430.933,150.187,427.52,153.6,422.4,153.6L422.4,153.6z
	 M81.067,158.72c-5.12,0-8.533-3.413-8.533-8.533V133.12c0-5.12,3.413-8.533,8.533-8.533c5.12,0,8.533,3.413,8.533,8.533v17.067
	C89.6,154.453,86.187,158.72,81.067,158.72L81.067,158.72z M422.4,204.8c-5.12,0-8.533-3.413-8.533-8.533V179.2
	c0-5.12,3.413-8.533,8.533-8.533s8.533,3.413,8.533,8.533v17.067C430.933,201.387,427.52,204.8,422.4,204.8L422.4,204.8z
	 M81.067,209.92c-5.12,0-8.533-3.413-8.533-8.533V184.32c0-5.12,3.413-8.533,8.533-8.533c5.12,0,8.533,3.413,8.533,8.533v17.067
	C89.6,205.653,86.187,209.92,81.067,209.92L81.067,209.92z M422.4,256c-5.12,0-8.533-3.413-8.533-8.533V230.4
	c0-5.12,3.413-8.533,8.533-8.533s8.533,3.413,8.533,8.533v17.067C430.933,252.587,427.52,256,422.4,256L422.4,256z M81.067,261.12
	c-5.12,0-8.533-3.413-8.533-8.533V235.52c0-5.12,3.413-8.533,8.533-8.533c5.12,0,8.533,3.413,8.533,8.533v17.067
	C89.6,256.853,86.187,261.12,81.067,261.12L81.067,261.12z M422.4,307.2c-5.12,0-8.533-3.413-8.533-8.533V281.6
	c0-5.12,3.413-8.533,8.533-8.533s8.533,3.413,8.533,8.533v17.067C430.933,303.787,427.52,307.2,422.4,307.2L422.4,307.2z
	 M81.067,312.32c-5.12,0-8.533-3.413-8.533-8.533V286.72c0-5.12,3.413-8.533,8.533-8.533c5.12,0,8.533,3.413,8.533,8.533v17.067
	C89.6,308.053,86.187,312.32,81.067,312.32L81.067,312.32z M422.4,358.4c-5.12,0-8.533-3.413-8.533-8.533V332.8
	c0-5.12,3.413-8.533,8.533-8.533s8.533,3.413,8.533,8.533v17.067C430.933,354.987,427.52,358.4,422.4,358.4L422.4,358.4z
	 M81.067,363.52c-5.12,0-8.533-3.413-8.533-8.533V337.92c0-5.12,3.413-8.533,8.533-8.533c5.12,0,8.533,3.413,8.533,8.533v17.067
	C89.6,359.253,86.187,363.52,81.067,363.52L81.067,363.52z M422.4,409.6c-5.12,0-8.533-3.413-8.533-8.533V384
	c0-5.12,3.413-8.533,8.533-8.533s8.533,3.413,8.533,8.533v17.067C430.933,406.187,427.52,409.6,422.4,409.6L422.4,409.6z
	 M81.067,414.72c-5.12,0-8.533-3.413-8.533-8.533V389.12c0-5.12,3.413-8.533,8.533-8.533c5.12,0,8.533,3.413,8.533,8.533v17.067
	C89.6,410.453,86.187,414.72,81.067,414.72L81.067,414.72z M422.4,460.8c-5.12,0-8.533-3.413-8.533-8.533V435.2
	c0-5.12,3.413-8.533,8.533-8.533s8.533,3.413,8.533,8.533v17.067C430.933,457.387,427.52,460.8,422.4,460.8L422.4,460.8z
	 M81.067,465.92c-5.12,0-8.533-3.413-8.533-8.533V440.32c0-5.12,3.413-8.533,8.533-8.533c5.12,0,8.533,3.413,8.533,8.533v17.067
	C89.6,461.653,86.187,465.92,81.067,465.92L81.067,465.92z M399.36,501.76c-3.413,0-6.827-2.56-7.68-5.973
	c-1.707-4.267,0.853-9.387,5.12-11.093c4.267-1.707,7.68-3.413,10.24-6.827c3.413-3.413,8.533-3.413,11.947,0
	c3.413,3.413,3.413,8.533,0,11.947c-5.12,5.12-11.093,9.387-17.92,11.093C401.067,501.76,400.213,501.76,399.36,501.76
	L399.36,501.76z M109.227,502.613c-0.853,0-0.853,0-1.707,0c-6.827-0.853-13.653-4.267-18.773-8.533
	c-3.413-2.56-4.267-8.533-0.853-11.947c2.56-3.413,8.533-4.267,11.947-0.853c2.56,2.56,6.827,4.267,11.093,5.12
	c4.267,0.853,7.68,5.12,6.827,10.24C116.907,500.053,113.493,502.613,109.227,502.613L109.227,502.613z M160.427,503.467H143.36
	c-5.12,0-8.533-3.413-8.533-8.533c0-5.12,3.413-8.533,8.533-8.533h17.067c5.12,0,8.533,3.413,8.533,8.533
	C168.96,500.053,164.693,503.467,160.427,503.467L160.427,503.467z M211.627,503.467H194.56c-5.12,0-8.533-3.413-8.533-8.533
	c0-5.12,3.413-8.533,8.533-8.533h17.067c5.12,0,8.533,3.413,8.533,8.533C220.16,500.053,215.893,503.467,211.627,503.467
	L211.627,503.467z M262.827,503.467H245.76c-5.12,0-8.533-3.413-8.533-8.533c0-5.12,3.413-8.533,8.533-8.533h17.067
	c5.12,0,8.533,3.413,8.533,8.533C271.36,500.053,267.093,503.467,262.827,503.467L262.827,503.467z M314.027,503.467H296.96
	c-5.12,0-8.533-3.413-8.533-8.533c0-5.12,3.413-8.533,8.533-8.533h17.067c5.12,0,8.533,3.413,8.533,8.533
	C322.56,500.053,318.293,503.467,314.027,503.467L314.027,503.467z M365.227,503.467H348.16c-5.12,0-8.533-3.413-8.533-8.533
	c0-5.12,3.413-8.533,8.533-8.533h17.067c5.12,0,8.533,3.413,8.533,8.533C373.76,500.053,369.493,503.467,365.227,503.467
	L365.227,503.467z"/>
<path style="fill:#546080;" d="M294.4,34.133V17.067C294.4,7.68,286.72,0,277.333,0h-51.2c-9.387,0-17.067,7.68-17.067,17.067
	v17.067h-34.133c-5.12,0-8.533,3.413-8.533,8.533V102.4c0,5.12,3.413,8.533,8.533,8.533h153.6c5.12,0,8.533-3.413,8.533-8.533
	V42.667c0-5.12-3.413-8.533-8.533-8.533H294.4z"/>
<g>
</g>
<g>
</g>
<g>
</g>
<g>
</g>
<g>
</g>
<g>
</g>
<g>
</g>
<g>
</g>
<g>
</g>
<g>
</g>
<g>
</g>
<g>
</g>
<g>
</g>
<g>
</g>
<g>
</g>
</svg>
